<svg width="25" height="27" viewBox="0 0 25 27" fill="none" xmlns="http://www.w3.org/2000/svg">
<g id="Cartas">
<path id="Vector" d="M16.0555 1H17.1444C17.4332 1 17.7102 1.15486 17.9144 1.43052C18.1186 1.70618 18.2334 2.08006 18.2334 2.4699V7.61453M21.5001 3.93979C21.7876 4.10442 22.0664 4.25876 22.3364 4.40281C22.6023 4.55507 22.8124 4.84363 22.9206 5.205C23.0289 5.56638 23.0263 5.97099 22.9136 6.32984L20.4112 14.2291M3.64612 5.69926L11.4189 1.12935C11.5471 1.05514 11.6851 1.01635 11.8246 1.01526C11.9642 1.01417 12.1025 1.0508 12.2314 1.12299C12.3602 1.19519 12.4771 1.30149 12.5751 1.43562C12.6731 1.56975 12.7502 1.729 12.8018 1.90399L18.1637 19.3987C18.2751 19.7535 18.2789 20.1531 18.1742 20.5116C18.0695 20.8701 17.8648 21.1587 17.604 21.3154L9.83231 25.8853C9.70399 25.9598 9.56592 25.9988 9.42626 26C9.2866 26.0012 9.14817 25.9646 9.01916 25.8924C8.89015 25.8202 8.77316 25.7138 8.67511 25.5796C8.57706 25.4453 8.49993 25.2859 8.44828 25.1107L3.08642 7.61453C2.97497 7.25978 2.97118 6.86013 3.07586 6.50164C3.18054 6.14315 3.38533 5.85595 3.64612 5.69926Z" stroke="#077198" stroke-width="2" stroke-linecap="round" stroke-linejoin="round"/>
</g>
</svg>
