<svg width="25" height="25" viewBox="0 0 25 25" fill="none" xmlns="http://www.w3.org/2000/svg">
<g id="New ">
<path id="Vector" d="M22.5 0C23.8875 0 25 1.39062 25 3.125V21.875C25 23.6094 23.8875 25 22.5 25H2.5C1.1125 25 0 23.6094 0 21.875V3.125C0 1.39062 1.1125 0 2.5 0H22.5ZM8.125 17.1875V7.8125H6.5625V13.2812L3.4375 7.8125H1.875V17.1875H3.4375V11.7188L6.625 17.1875H8.125ZM14.375 9.78125V7.8125H9.375V17.1875H14.375V15.2344H11.25V13.5H14.375V11.5312H11.25V9.78125H14.375ZM23.125 15.625V7.8125H21.5625V14.8438H20.1625V9.375H18.6V14.8438H17.1875V7.8125H15.625V15.625C15.625 16.0394 15.7567 16.4368 15.9911 16.7299C16.2255 17.0229 16.5435 17.1875 16.875 17.1875H21.875C22.2065 17.1875 22.5245 17.0229 22.7589 16.7299C22.9933 16.4368 23.125 16.0394 23.125 15.625Z" fill="#077198"/>
</g>
</svg>
