<svg width="25" height="25" viewBox="0 0 25 25" fill="none" xmlns="http://www.w3.org/2000/svg">
<g id="Terror">
<path id="Vector" d="M13 0C15.6522 0 18.1957 1.18516 20.0711 3.29477C21.9464 5.40438 23 8.26562 23 11.249V20.6233C23.0004 21.5581 22.7346 22.4685 22.2415 23.221C21.7484 23.9735 21.054 24.5286 20.26 24.8047C19.4661 25.0809 18.6143 25.0637 17.8297 24.7557C17.0451 24.4477 16.3688 23.865 15.9 23.093C15.6097 23.6713 15.1881 24.1525 14.6783 24.4873C14.1685 24.8221 13.5887 24.9985 12.9983 24.9985C12.408 24.9985 11.8282 24.8221 11.3184 24.4873C10.8085 24.1525 10.3869 23.6713 10.0967 23.093C9.6378 23.8465 8.98078 24.4196 8.21776 24.7318C7.45474 25.044 6.62398 25.0797 5.842 24.834C5.06001 24.5882 4.36601 24.0733 3.85733 23.3614C3.34865 22.6495 3.0508 21.7764 3.00556 20.8645L3 20.622V11.249C3 8.26562 4.05357 5.40438 5.92893 3.29477C7.8043 1.18516 10.3478 0 13 0ZM13 2.49979C10.9834 2.49975 9.04554 3.38083 7.5953 4.95717C6.14507 6.53352 5.29581 8.68188 5.22667 10.9491L5.22222 11.249V20.5558L5.22444 20.7282C5.24359 21.1029 5.36227 21.4625 5.56511 21.7605C5.76796 22.0585 6.04564 22.2811 6.36222 22.3996C6.67879 22.5181 7.0197 22.527 7.34081 22.4251C7.66192 22.3232 7.94845 22.1153 8.16333 21.8282L8.26111 21.6832C8.47387 21.3322 8.76262 21.0481 9.1001 20.8575C9.43757 20.667 9.81265 20.5763 10.1899 20.5941C10.5672 20.6118 10.9342 20.7374 11.2564 20.959C11.5785 21.1807 11.8452 21.491 12.0311 21.8607C12.1275 22.0535 12.2677 22.2141 12.4374 22.326C12.6071 22.4379 12.8001 22.4971 12.9968 22.4974C13.1935 22.4978 13.3867 22.4394 13.5568 22.3282C13.7268 22.217 13.8675 22.0569 13.9644 21.8644C14.1423 21.5092 14.3947 21.2084 14.6996 20.9881C15.0045 20.7678 15.3527 20.6347 15.7138 20.6004C16.0749 20.5661 16.438 20.6317 16.7714 20.7915C17.1048 20.9512 17.3984 21.2003 17.6267 21.5169L17.7344 21.6794C17.9275 21.9976 18.2029 22.2412 18.5234 22.377C18.8438 22.5128 19.1936 22.5343 19.5253 22.4386C19.857 22.3429 20.1544 22.1345 20.3771 21.8419C20.5998 21.5493 20.737 21.1866 20.77 20.8032L20.7778 20.6233V11.249C20.7778 8.9286 19.9583 6.70319 18.4997 5.06239C17.0411 3.42158 15.0628 2.49979 13 2.49979ZM13 12.4989C14.2278 12.4989 15.2222 13.8988 15.2222 15.6237C15.2222 17.3485 14.2278 18.7484 13 18.7484C11.7722 18.7484 10.7778 17.3485 10.7778 15.6237C10.7778 13.8988 11.7722 12.4989 13 12.4989ZM10.2222 7.49937C10.6642 7.49937 11.0882 7.69689 11.4007 8.04849C11.7133 8.40009 11.8889 8.87697 11.8889 9.37421C11.8889 9.87145 11.7133 10.3483 11.4007 10.6999C11.0882 11.0515 10.6642 11.249 10.2222 11.249C9.7802 11.249 9.35627 11.0515 9.04371 10.6999C8.73115 10.3483 8.55556 9.87145 8.55556 9.37421C8.55556 8.87697 8.73115 8.40009 9.04371 8.04849C9.35627 7.69689 9.7802 7.49937 10.2222 7.49937ZM15.7778 7.49937C16.2198 7.49937 16.6437 7.69689 16.9563 8.04849C17.2689 8.40009 17.4444 8.87697 17.4444 9.37421C17.4444 9.87145 17.2689 10.3483 16.9563 10.6999C16.6437 11.0515 16.2198 11.249 15.7778 11.249C15.3358 11.249 14.9118 11.0515 14.5993 10.6999C14.2867 10.3483 14.1111 9.87145 14.1111 9.37421C14.1111 8.87697 14.2867 8.40009 14.5993 8.04849C14.9118 7.69689 15.3358 7.49937 15.7778 7.49937Z" fill="#077198"/>
</g>
</svg>
