<svg width="32" height="27" viewBox="0 0 32 27" fill="none" xmlns="http://www.w3.org/2000/svg">
<path d="M30.7648 21.6149L25.384 17.0474L21.2453 15.5959C22.6233 13.9324 23.3616 11.9478 23.359 9.91416C23.359 4.44746 18.1196 0 11.6795 0C5.23938 0 0 4.44746 0 9.91416C0 15.3809 5.23938 19.8283 11.6795 19.8283C14.0961 19.8307 16.4534 19.1931 18.423 18.0045L20.1285 21.5083L25.5091 26.076C25.8541 26.3689 26.2638 26.6013 26.7147 26.7598C27.1656 26.9184 27.6488 27 28.1368 27C28.6249 27 29.1081 26.9184 29.559 26.7599C30.0099 26.6014 30.4196 26.369 30.7647 26.0761C31.1098 25.7832 31.3835 25.4355 31.5703 25.0527C31.7571 24.67 31.8532 24.2598 31.8532 23.8455C31.8532 23.4313 31.7571 23.0211 31.5704 22.6383C31.3836 22.2556 31.1099 21.9078 30.7648 21.6149ZM2.12354 9.91416C2.12354 5.44152 6.41045 1.80257 11.6795 1.80257C16.9485 1.80257 21.2354 5.44152 21.2354 9.91416C21.2354 14.3868 16.9485 18.0257 11.6795 18.0257C6.41045 18.0257 2.12354 14.3868 2.12354 9.91416ZM29.2632 24.8014C28.9642 25.0546 28.5592 25.1967 28.1369 25.1967C27.7147 25.1967 27.3097 25.0546 27.0107 24.8014L21.9294 20.4881L20.3437 17.2302L24.1818 18.5761L29.2633 22.8895C29.5615 23.1432 29.729 23.487 29.7289 23.8455C29.7289 24.2039 29.5614 24.5477 29.2632 24.8014Z" fill="#077198"/>
</svg>
