<svg width="29" height="28" viewBox="0 0 29 28" fill="none" xmlns="http://www.w3.org/2000/svg">
<path d="M22.6512 23.2C23.4021 23.2 24.1223 23.4529 24.6533 23.9029C25.1843 24.353 25.4826 24.9635 25.4826 25.6C25.4826 26.2365 25.1843 26.847 24.6533 27.2971C24.1223 27.7471 23.4021 28 22.6512 28C21.9002 28 21.1801 27.7471 20.6491 27.2971C20.1181 26.847 19.8198 26.2365 19.8198 25.6C19.8198 24.268 21.0798 23.2 22.6512 23.2ZM0 4H4.62933L5.96009 6.4H26.8983C27.2737 6.4 27.6338 6.52643 27.8993 6.75147C28.1648 6.97652 28.314 7.28174 28.314 7.6C28.314 7.804 28.2432 8.008 28.1441 8.2L23.0759 15.964C22.5945 16.696 21.6602 17.2 20.5984 17.2H10.0515L8.77733 19.156L8.73486 19.3C8.73486 19.3796 8.77215 19.4559 8.83852 19.5121C8.9049 19.5684 8.99492 19.6 9.08879 19.6H25.4826V22H8.49419C7.74326 22 7.02308 21.7471 6.49209 21.2971C5.9611 20.847 5.66279 20.2365 5.66279 19.6C5.66279 19.18 5.79021 18.784 6.00256 18.448L7.92791 15.508L2.8314 6.4H0V4ZM8.49419 23.2C9.24512 23.2 9.9653 23.4529 10.4963 23.9029C11.0273 24.353 11.3256 24.9635 11.3256 25.6C11.3256 26.2365 11.0273 26.847 10.4963 27.2971C9.9653 27.7471 9.24512 28 8.49419 28C7.74326 28 7.02308 27.7471 6.49209 27.2971C5.9611 26.847 5.66279 26.2365 5.66279 25.6C5.66279 24.268 6.92277 23.2 8.49419 23.2ZM21.2355 14.8L25.1711 8.8H7.27669L10.6177 14.8H21.2355Z" fill="#6ED8FF"/>
<circle cx="15.5" cy="6.5" r="6.5" fill="#F45672"/>
<path d="M17.6182 4.89C17.6182 5.14333 17.5682 5.38667 17.4682 5.62C17.3682 5.85333 17.2382 6.08 17.0782 6.3C16.9182 6.51333 16.7382 6.72 16.5382 6.92C16.3382 7.12 16.1415 7.31 15.9482 7.49C15.8482 7.58333 15.7382 7.69 15.6182 7.81C15.5049 7.92333 15.3949 8.04 15.2882 8.16C15.1815 8.28 15.0849 8.39333 14.9982 8.5C14.9182 8.6 14.8682 8.68333 14.8482 8.75H17.8282V10H13.2082C13.1949 9.92667 13.1882 9.83333 13.1882 9.72C13.1882 9.60667 13.1882 9.52667 13.1882 9.48C13.1882 9.16 13.2382 8.86667 13.3382 8.6C13.4449 8.33333 13.5815 8.08667 13.7482 7.86C13.9149 7.62667 14.1015 7.41 14.3082 7.21C14.5215 7.01 14.7315 6.81 14.9382 6.61C15.0982 6.45667 15.2482 6.31333 15.3882 6.18C15.5282 6.04 15.6515 5.90667 15.7582 5.78C15.8649 5.64667 15.9482 5.51667 16.0082 5.39C16.0682 5.25667 16.0982 5.12333 16.0982 4.99C16.0982 4.69667 16.0149 4.49 15.8482 4.37C15.6815 4.25 15.4749 4.19 15.2282 4.19C15.0482 4.19 14.8782 4.22 14.7182 4.28C14.5649 4.33333 14.4215 4.4 14.2882 4.48C14.1615 4.55333 14.0515 4.63 13.9582 4.71C13.8649 4.78333 13.7949 4.84333 13.7482 4.89L13.0082 3.85C13.3015 3.57667 13.6415 3.35333 14.0282 3.18C14.4215 3 14.8415 2.91 15.2882 2.91C15.6949 2.91 16.0449 2.95667 16.3382 3.05C16.6315 3.14333 16.8715 3.27667 17.0582 3.45C17.2515 3.61667 17.3915 3.82333 17.4782 4.07C17.5715 4.31 17.6182 4.58333 17.6182 4.89Z" fill="#F2FBFF"/>
</svg>
