<svg width="29" height="29" viewBox="0 0 29 29" fill="none" xmlns="http://www.w3.org/2000/svg">
<path d="M22.6512 24.2C23.4021 24.2 24.1223 24.4529 24.6533 24.9029C25.1843 25.353 25.4826 25.9635 25.4826 26.6C25.4826 27.2365 25.1843 27.847 24.6533 28.2971C24.1223 28.7471 23.4021 29 22.6512 29C21.9002 29 21.1801 28.7471 20.6491 28.2971C20.1181 27.847 19.8198 27.2365 19.8198 26.6C19.8198 25.268 21.0798 24.2 22.6512 24.2ZM0 5H4.62933L5.96009 7.4H26.8983C27.2737 7.4 27.6338 7.52643 27.8993 7.75147C28.1648 7.97652 28.314 8.28174 28.314 8.6C28.314 8.804 28.2432 9.008 28.1441 9.2L23.0759 16.964C22.5945 17.696 21.6602 18.2 20.5984 18.2H10.0515L8.77733 20.156L8.73486 20.3C8.73486 20.3796 8.77215 20.4559 8.83852 20.5121C8.9049 20.5684 8.99492 20.6 9.08879 20.6H25.4826V23H8.49419C7.74326 23 7.02308 22.7471 6.49209 22.2971C5.9611 21.847 5.66279 21.2365 5.66279 20.6C5.66279 20.18 5.79021 19.784 6.00256 19.448L7.92791 16.508L2.8314 7.4H0V5ZM8.49419 24.2C9.24512 24.2 9.9653 24.4529 10.4963 24.9029C11.0273 25.353 11.3256 25.9635 11.3256 26.6C11.3256 27.2365 11.0273 27.847 10.4963 28.2971C9.9653 28.7471 9.24512 29 8.49419 29C7.74326 29 7.02308 28.7471 6.49209 28.2971C5.9611 27.847 5.66279 27.2365 5.66279 26.6C5.66279 25.268 6.92277 24.2 8.49419 24.2ZM21.2355 15.8L25.1711 9.8H7.27669L10.6177 15.8H21.2355Z" fill="#00AEEF"/>
<g clip-path="url(#clip0_478_72)">
<path d="M16.5 14.0625C20.1244 14.0625 23.0625 11.1244 23.0625 7.5C23.0625 3.87563 20.1244 0.9375 16.5 0.9375C12.8756 0.9375 9.9375 3.87563 9.9375 7.5C9.9375 11.1244 12.8756 14.0625 16.5 14.0625Z" fill="#4CAF50"/>
<path d="M19.8125 4.5625L15.5625 8.8125L13.8125 7.0625L12.9375 7.9375L15.5625 10.5625L20.6875 5.4375L19.8125 4.5625Z" fill="#CCFF90"/>
</g>
<defs>
<clipPath id="clip0_478_72">
<rect width="15" height="15" fill="white" transform="translate(9)"/>
</clipPath>
</defs>
</svg>
