<svg width="50" height="43" viewBox="0 0 50 43" fill="none" xmlns="http://www.w3.org/2000/svg">
<path d="M40 33.9055C41.3261 33.9055 42.5979 34.352 43.5355 35.1469C44.4732 35.9417 45 37.0197 45 38.1437C45 39.2677 44.4732 40.3457 43.5355 41.1406C42.5979 41.9354 41.3261 42.3819 40 42.3819C38.6739 42.3819 37.4021 41.9354 36.4645 41.1406C35.5268 40.3457 35 39.2677 35 38.1437C35 35.7915 37.225 33.9055 40 33.9055ZM0 0H8.175L10.525 4.23819H47.5C48.163 4.23819 48.7989 4.46145 49.2678 4.85886C49.7366 5.25627 50 5.79527 50 6.35729C50 6.71753 49.875 7.07778 49.7 7.41683L40.75 21.1274C39.9 22.42 38.25 23.31 36.375 23.31H17.75L15.5 26.7642L15.425 27.0185C15.425 27.159 15.4908 27.2937 15.6081 27.3931C15.7253 27.4924 15.8842 27.5482 16.05 27.5482H45V31.7864H15C13.6739 31.7864 12.4021 31.3399 11.4645 30.5451C10.5268 29.7503 10 28.6723 10 27.5482C10 26.8066 10.225 26.1073 10.6 25.5139L14 20.3221L5 4.23819H0V0ZM15 33.9055C16.3261 33.9055 17.5979 34.352 18.5355 35.1469C19.4732 35.9417 20 37.0197 20 38.1437C20 39.2677 19.4732 40.3457 18.5355 41.1406C17.5979 41.9354 16.3261 42.3819 15 42.3819C13.6739 42.3819 12.4021 41.9354 11.4645 41.1406C10.5268 40.3457 10 39.2677 10 38.1437C10 35.7915 12.225 33.9055 15 33.9055ZM37.5 19.0719L44.45 8.47638H12.85L18.75 19.0719H37.5Z" fill="#022D3D"/>
</svg>
