<svg width="29" height="24" viewBox="0 0 29 24" fill="none" xmlns="http://www.w3.org/2000/svg">
<path d="M22.6512 19.2C23.4021 19.2 24.1223 19.4529 24.6533 19.9029C25.1843 20.353 25.4826 20.9635 25.4826 21.6C25.4826 22.2365 25.1843 22.847 24.6533 23.2971C24.1223 23.7471 23.4021 24 22.6512 24C21.9002 24 21.1801 23.7471 20.6491 23.2971C20.1181 22.847 19.8198 22.2365 19.8198 21.6C19.8198 20.268 21.0798 19.2 22.6512 19.2ZM0 0H4.62933L5.96009 2.4H26.8983C27.2737 2.4 27.6338 2.52643 27.8993 2.75147C28.1648 2.97652 28.314 3.28174 28.314 3.6C28.314 3.804 28.2432 4.008 28.1441 4.2L23.0759 11.964C22.5945 12.696 21.6602 13.2 20.5984 13.2H10.0515L8.77733 15.156L8.73486 15.3C8.73486 15.3796 8.77215 15.4559 8.83852 15.5121C8.9049 15.5684 8.99492 15.6 9.08879 15.6H25.4826V18H8.49419C7.74326 18 7.02308 17.7471 6.49209 17.2971C5.9611 16.847 5.66279 16.2365 5.66279 15.6C5.66279 15.18 5.79021 14.784 6.00256 14.448L7.92791 11.508L2.8314 2.4H0V0ZM8.49419 19.2C9.24512 19.2 9.9653 19.4529 10.4963 19.9029C11.0273 20.353 11.3256 20.9635 11.3256 21.6C11.3256 22.2365 11.0273 22.847 10.4963 23.2971C9.9653 23.7471 9.24512 24 8.49419 24C7.74326 24 7.02308 23.7471 6.49209 23.2971C5.9611 22.847 5.66279 22.2365 5.66279 21.6C5.66279 20.268 6.92277 19.2 8.49419 19.2ZM21.2355 10.8L25.1711 4.8H7.27669L10.6177 10.8H21.2355Z" fill="#00AEEF"/>
</svg>
