<svg width="20" height="20" viewBox="0 0 20 20" fill="none" xmlns="http://www.w3.org/2000/svg">
<path d="M15.2626 15.9885L15.9145 15.3499C18.9308 15.4471 18.9772 15.3428 19.1097 15.0371L19.9384 13.0478L20 12.8592L19.9326 12.6942C19.8971 12.607 19.7878 12.347 17.9044 10.5763V9.64485C20.0775 7.58053 20.0311 7.47481 19.9073 7.17267L19.0822 5.16264C18.9583 4.8612 18.9113 4.74334 15.9167 4.82406L15.2648 4.15976C15.3321 3.18125 15.2978 2.19852 15.1626 1.22686L15.0786 1.039L12.9243 0.110415C12.607 -0.0324439 12.4955 -0.0838732 10.4614 2.10045L9.54727 2.08687C7.4531 -0.117445 7.35386 -0.0774446 7.0402 0.0475573L5.03731 0.846141C4.72365 0.971143 4.61282 1.01543 4.73452 4.01548L4.08765 4.6512C1.0728 4.55405 1.02644 4.65977 0.895328 4.96406L0.0651939 6.95409L0 7.14481L0.0680913 7.31053C0.103586 7.39624 0.20862 7.65339 2.09634 9.42627V10.3549C-0.0767836 12.4192 -0.0296994 12.5249 0.0948932 12.8278L0.919232 14.8399C1.04527 15.1478 1.09019 15.2571 4.08403 15.1799L4.73597 15.8478C4.66839 16.8248 4.70164 17.806 4.8352 18.7764L4.91923 18.9657L7.08729 19.9C7.40239 20.03 7.51177 20.0764 9.54002 17.9L10.4542 17.9114C12.5512 20.1186 12.6585 20.0757 12.9649 19.9536L14.9634 19.1571C15.2792 19.0336 15.3894 18.99 15.2626 15.9885ZM6.67294 11.3284C6.42018 10.677 6.36814 9.96654 6.52335 9.28608C6.67856 8.60562 7.03412 7.98552 7.5454 7.50359C8.05668 7.02165 8.70092 6.69935 9.39727 6.57711C10.0936 6.45488 10.8111 6.53817 11.4596 6.81652C12.1081 7.09488 12.6589 7.5559 13.0427 8.14175C13.4265 8.72759 13.6263 9.41216 13.617 10.1096C13.6077 10.807 13.3897 11.4861 12.9905 12.0618C12.5912 12.6375 12.0284 13.0841 11.3727 13.3456C10.478 13.6906 9.48122 13.672 8.60041 13.294C7.7196 12.9159 7.02655 12.2092 6.67294 11.3284Z" fill="#077198"/>
</svg>
