<svg width="35" height="35" viewBox="0 0 35 35" fill="none" xmlns="http://www.w3.org/2000/svg">
<g id="mdi:controller-outline">
<path id="Vector" d="M10.9373 13.125H2.9165V21.875H10.9373L15.3123 17.5L10.9373 13.125ZM8.74984 18.9583H5.83317V16.0416H8.74984V18.9583ZM21.8748 10.9375V2.91663H13.1248V10.9375L17.4998 15.3125L21.8748 10.9375ZM16.0415 5.83329H18.9582V8.74996H16.0415V5.83329ZM13.1248 24.0625V32.0833H21.8748V24.0625L17.4998 19.6875L13.1248 24.0625ZM18.9582 29.1666H16.0415V26.25H18.9582V29.1666ZM24.0623 13.125L19.6873 17.5L24.0623 21.875H32.0832V13.125H24.0623ZM29.1665 18.9583H26.2498V16.0416H29.1665V18.9583Z" fill="#00AEEF" fill-opacity="0.75"/>
</g>
</svg>
