<svg width="28" height="29" viewBox="0 0 28 29" fill="none" xmlns="http://www.w3.org/2000/svg">
<g id="iconamoon:dislike">
<g id="Group">
<path id="Vector" d="M17.5 16.6754L16.3497 16.8667C16.3219 16.6996 16.3308 16.5285 16.3758 16.3653C16.4208 16.202 16.5009 16.0505 16.6103 15.9213C16.7198 15.7921 16.8561 15.6882 17.0097 15.617C17.1633 15.5457 17.3306 15.5088 17.5 15.5087V16.6754ZM4.66667 16.6754V17.842C4.35725 17.842 4.0605 17.7191 3.84171 17.5003C3.62292 17.2815 3.5 16.9848 3.5 16.6754H4.66667ZM7 3.84204H20.2533V6.17537H7V3.84204ZM21.6533 17.842H17.5V15.5087H21.6533V17.842ZM18.6515 16.484L19.5907 22.1249L17.29 22.5087L16.3497 16.8667L18.6515 16.484ZM17.29 24.842H17.0403V22.5087H17.29V24.842ZM13.1565 22.7642L10.2223 18.3612L12.1637 17.0662L15.099 21.4692L13.1565 22.7642ZM9.25167 17.842H4.66667V15.5087H9.25167V17.842ZM3.5 16.6754V7.34204H5.83333V16.6754H3.5ZM23.6857 6.65604L25.0857 13.656L22.799 14.1134L21.399 7.11337L23.6857 6.65604ZM10.2223 18.3612C10.1158 18.2015 9.97141 18.0705 9.80208 17.9799C9.63275 17.8894 9.44369 17.842 9.25167 17.842V15.5087C9.82785 15.5087 10.3951 15.651 10.9031 15.9229C11.4111 16.1948 11.8441 16.588 12.1637 17.0674L10.2223 18.3624V18.3612ZM19.5907 22.1249C19.6464 22.4591 19.6287 22.8014 19.5387 23.1281C19.4488 23.4547 19.2888 23.7579 19.0699 24.0165C18.8509 24.2751 18.5783 24.4829 18.2709 24.6254C17.9636 24.768 17.6288 24.8419 17.29 24.842V22.5087L19.5907 22.1249ZM21.6533 15.5087C21.826 15.5088 21.9965 15.4705 22.1525 15.3967C22.3086 15.3229 22.4464 15.2154 22.5558 15.0819C22.6653 14.9484 22.7438 14.7923 22.7857 14.6248C22.8275 14.4574 22.8328 14.2827 22.799 14.1134L25.0857 13.656C25.1871 14.1637 25.1747 14.6876 25.0493 15.1899C24.9239 15.6922 24.6886 16.1604 24.3604 16.5608C24.0322 16.9612 23.6193 17.2838 23.1514 17.5054C22.6835 17.7269 22.1722 17.8419 21.6545 17.842V15.5087H21.6533ZM20.2533 3.84204C21.0626 3.84199 21.8468 4.12235 22.4726 4.63541C23.0984 5.14846 23.5271 5.86251 23.6857 6.65604L21.399 7.11337C21.3461 6.8486 21.203 6.61038 20.994 6.43934C20.7851 6.26829 20.5233 6.175 20.2533 6.17537V3.84204ZM17.0403 24.842C16.2719 24.8422 15.5154 24.6527 14.8378 24.2902C14.1603 23.9277 13.5828 23.4035 13.1565 22.7642L15.099 21.4692C15.312 21.7889 15.6007 22.051 15.9393 22.2324C16.278 22.4137 16.6562 22.5086 17.0403 22.5087V24.842ZM7 6.17537C6.69058 6.17537 6.39383 6.29829 6.17504 6.51708C5.95625 6.73588 5.83333 7.03262 5.83333 7.34204H3.5C3.5 6.41378 3.86875 5.52354 4.52513 4.86717C5.1815 4.21079 6.07174 3.84204 7 3.84204V6.17537Z" fill="#FF8500"/>
<path id="Vector_2" d="M9.3335 16.6754V5.00873" stroke="#FF8500" stroke-width="1.66667"/>
</g>
</g>
</svg>
