<svg width="40" height="35" viewBox="0 0 40 35" fill="none" xmlns="http://www.w3.org/2000/svg">
<g id="IconoUs">
<path id="Vector" d="M20 5.97583C15.1813 5.97583 11.25 9.32084 11.25 13.421C11.25 15.9843 12.7875 18.2604 15.1175 19.6037C10.6588 21.231 7.5 24.9961 7.5 29.375H10C10 24.6632 14.4625 20.8662 20 20.8662C25.5375 20.8662 30 24.6632 30 29.375H32.5C32.5 24.9961 29.3412 21.2321 24.8825 19.6026C26.0717 18.9196 27.046 17.9989 27.7202 16.9213C28.3945 15.8436 28.748 14.6418 28.75 13.421C28.75 9.32084 24.8188 5.97583 20 5.97583ZM20 8.10302C23.4663 8.10302 26.25 10.4717 26.25 13.421C26.25 16.3704 23.4663 18.739 20 18.739C16.5337 18.739 13.75 16.3704 13.75 13.421C13.75 10.4717 16.5337 8.10302 20 8.10302Z" fill="#FF9D32"/>
</g>
</svg>
