<svg width="30" height="31" viewBox="0 0 30 31" fill="none" xmlns="http://www.w3.org/2000/svg">
<g id="iconamoon:like-light">
<g id="Group">
<path id="Vector" d="M18.75 12.8421L17.825 12.6883C17.8027 12.8226 17.8099 12.9602 17.8461 13.0914C17.8823 13.2226 17.9466 13.3444 18.0347 13.4483C18.1227 13.5521 18.2323 13.6355 18.3558 13.6928C18.4793 13.75 18.6139 13.7796 18.75 13.7796V12.8421ZM5 12.8421V11.9046C4.75136 11.9046 4.5129 12.0033 4.33709 12.1792C4.16127 12.355 4.0625 12.5934 4.0625 12.8421H5ZM7.5 26.2796H21.7V24.4046H7.5V26.2796ZM23.2 11.9046H18.75V13.7796H23.2V11.9046ZM19.675 12.9958L20.6825 6.95207L18.8325 6.64332L17.825 12.6883L19.675 12.9958ZM18.525 4.40457H18.2575V6.27957H18.5238L18.525 4.40457ZM14.3562 6.49207L11.2125 11.2083L12.7725 12.2483L15.9163 7.53207L14.3562 6.49207ZM9.9125 11.9046H5V13.7796H9.9125V11.9046ZM4.0625 12.8421V22.8421H5.9375V12.8421H4.0625ZM25.0712 23.5171L26.5713 16.0171L24.7338 15.6483L23.2337 23.1483L25.0712 23.5158V23.5171ZM11.2125 11.2083C11.0699 11.4224 10.8766 11.5968 10.6498 11.7182C10.423 11.8397 10.1698 11.9033 9.9125 11.9033V13.7783C11.0625 13.7783 12.135 13.2046 12.7725 12.2483L11.2125 11.2083ZM20.6825 6.95207C20.7346 6.63878 20.7178 6.31666 20.6334 6.0105C20.549 5.70434 20.3989 5.42024 20.1936 5.17793C19.9883 4.93563 19.7326 4.74094 19.4445 4.60739C19.1564 4.47383 18.8426 4.40463 18.525 4.40457L18.5238 6.27957C18.5691 6.27968 18.6151 6.28964 18.6561 6.30877C18.6972 6.32789 18.7336 6.35572 18.7629 6.39032C18.7921 6.42493 18.8135 6.46547 18.8255 6.50916C18.8376 6.55285 18.8399 6.59862 18.8325 6.64332L20.6825 6.95207ZM23.2 13.7783C24.1875 13.7783 24.925 14.6808 24.7325 15.6471L26.5713 16.0158C26.6707 15.5172 26.6583 15.0014 26.535 14.5082C26.4116 14.0149 26.1804 13.5551 25.8579 13.162C25.5355 12.7689 25.1298 12.4522 24.6702 12.2348C24.2106 12.0173 23.7085 11.9045 23.2 11.9046V13.7796V13.7783ZM21.7 26.2796C22.4946 26.2797 23.2648 26.0033 23.8794 25.4997C24.4941 24.996 24.9152 24.295 25.0712 23.5158L23.2337 23.1471C23.1629 23.5016 22.9713 23.8205 22.6916 24.0496C22.412 24.2787 22.0615 24.4049 21.7 24.4046V26.2796ZM18.2575 4.40457C17.4858 4.40463 16.7261 4.59394 16.0458 4.9581C15.3654 5.32225 14.7855 5.84874 14.3575 6.49082L15.9163 7.53207C16.1732 7.14664 16.5213 6.82939 16.9298 6.61089C17.3382 6.39239 17.7943 6.2794 18.2575 6.27957V4.40457ZM7.5 24.4046C6.6375 24.4046 5.9375 23.7046 5.9375 22.8421H4.0625C4.0625 23.7538 4.42466 24.6281 5.06932 25.2727C5.71398 25.9174 6.58832 26.2796 7.5 26.2796V24.4046Z" fill="#FF8500"/>
<path id="Vector_2" d="M10 12.842V25.342" stroke="#FF8500" stroke-width="1.25"/>
</g>
</g>
</svg>
