<svg width="28" height="27" viewBox="0 0 28 27" fill="none" xmlns="http://www.w3.org/2000/svg">
<g id="Group">
<path id="Vector" d="M17.8752 10.4167L16.796 10.2271C16.7699 10.3927 16.7783 10.5624 16.8206 10.7242C16.8628 10.8861 16.9379 11.0363 17.0406 11.1643C17.1433 11.2924 17.2712 11.3953 17.4153 11.4659C17.5594 11.5365 17.7163 11.573 17.8752 11.573V10.4167ZM1.8335 10.4167V9.26045C1.54342 9.26045 1.26522 9.38227 1.0601 9.59911C0.85498 9.81595 0.739746 10.11 0.739746 10.4167H1.8335ZM4.75016 26.9896H21.3168V24.6771H4.75016V26.9896ZM23.0668 9.26045H17.8752V11.573H23.0668V9.26045ZM18.9543 10.6063L20.1297 3.15237L17.9714 2.77158L16.796 10.2271L18.9543 10.6063ZM17.6127 0.0104527H17.3006V2.32295H17.6112L17.6127 0.0104527ZM12.7491 2.58504L9.08141 8.40174L10.9014 9.68441L14.5691 3.8677L12.7491 2.58504ZM7.56475 9.26045H1.8335V11.573H7.56475V9.26045ZM0.739746 10.4167V22.75H2.92725V10.4167H0.739746ZM25.25 23.5825L27 14.3325L24.8562 13.8777L23.1062 23.1277L25.25 23.581V23.5825ZM9.08141 8.40174C8.91502 8.66581 8.68952 8.88081 8.42494 9.03061C8.16036 9.18041 7.86488 9.25883 7.56475 9.25891V11.5714C8.90641 11.5714 10.1577 10.8638 10.9014 9.68441L9.08141 8.40174ZM20.1297 3.15237C20.1905 2.76598 20.171 2.36869 20.0725 1.9911C19.9739 1.6135 19.7988 1.26311 19.5593 0.964267C19.3198 0.665427 19.0216 0.425306 18.6854 0.260592C18.3492 0.0958782 17.9832 0.0105211 17.6127 0.0104527L17.6112 2.32295C17.6641 2.32309 17.7177 2.33538 17.7656 2.35896C17.8136 2.38255 17.8561 2.41687 17.8902 2.45955C17.9243 2.50222 17.9493 2.55223 17.9633 2.60611C17.9773 2.65999 17.9801 2.71645 17.9714 2.77158L20.1297 3.15237ZM23.0668 11.5714C24.2189 11.5714 25.0793 12.6845 24.8547 13.8762L27 14.331C27.116 13.716 27.1016 13.0799 26.9577 12.4716C26.8138 11.8632 26.544 11.2962 26.1678 10.8113C25.7916 10.3264 25.3183 9.93586 24.7821 9.66768C24.2459 9.39951 23.66 9.26042 23.0668 9.26045V11.573V11.5714ZM21.3168 26.9896C22.2439 26.9898 23.1424 26.6489 23.8595 26.0277C24.5766 25.4066 25.0679 24.542 25.25 23.581L23.1062 23.1262C23.0235 23.5634 22.8 23.9568 22.4737 24.2393C22.1475 24.5218 21.7386 24.6776 21.3168 24.6771V26.9896ZM17.3006 0.0104527C16.4003 0.0105218 15.514 0.244008 14.7202 0.693134C13.9265 1.14226 13.2499 1.79159 12.7506 2.58349L14.5691 3.8677C14.8689 3.39234 15.275 3.00107 15.7516 2.73158C16.2281 2.46209 16.7602 2.32274 17.3006 2.32295V0.0104527ZM4.75016 24.6771C3.74391 24.6771 2.92725 23.8138 2.92725 22.75H0.739746C0.739746 23.8744 1.16227 24.9528 1.91437 25.7479C2.66647 26.5429 3.68653 26.9896 4.75016 26.9896V24.6771Z" fill="#022D3D"/>
<path id="Vector_2" d="M7.66699 10.4167V25.8334" stroke="#022D3D" stroke-width="1.25"/>
</g>
</svg>
