<svg width="20" height="20" viewBox="0 0 20 20" fill="none" xmlns="http://www.w3.org/2000/svg">
<path d="M6.15 13.25L9 10.4L11.85 13.25L13.25 11.85L10.4 9L13.25 6.15L11.85 4.75L9 7.6L6.15 4.75L4.75 6.15L7.6 9L4.75 11.85L6.15 13.25ZM0 18V0H18V10.35C17.6833 10.2333 17.3583 10.146 17.025 10.088C16.6917 10.03 16.35 10.0007 16 10V2H2V16H10C10 16.35 10.0293 16.6917 10.088 17.025C10.1467 17.3583 10.234 17.6833 10.35 18H0ZM16 20L14.6 18.6L16.175 17H12V15H16.175L14.6 13.4L16 12L20 16L16 20Z" fill="#077198"/>
</svg>
