<svg width="29" height="27" viewBox="0 0 29 27" fill="none" xmlns="http://www.w3.org/2000/svg">
<path d="M28.314 13.5C28.314 20.9647 21.985 27 14.157 27C6.329 27 0 20.9647 0 13.5C0 6.03531 6.329 1.4782e-05 14.157 1.4782e-05C21.985 1.4782e-05 28.314 6.03531 28.314 13.5ZM1.66553 13.5C1.66553 20.0912 7.24504 25.4118 14.157 25.4118C21.0689 25.4118 26.6484 20.0912 26.6484 13.5C26.6484 6.90883 21.0689 1.58825 14.157 1.58825C7.24504 1.58825 1.66553 6.90883 1.66553 13.5Z" fill="#C1EEFF"/>
<path d="M15.5727 6.90883L8.66075 13.5L15.5727 20.0912L14.4068 21.2029L6.32901 13.5L14.4068 5.79707L15.5727 6.90883Z" fill="#C1EEFF"/>
<path d="M7.4949 14.2941V12.7059L21.6519 12.7059V14.2941L7.4949 14.2941Z" fill="#C1EEFF"/>
</svg>
