<svg width="23" height="23" viewBox="0 0 23 23" fill="none" xmlns="http://www.w3.org/2000/svg">
<g id="cdnlogo.com_recaptcha 1" clip-path="url(#clip0_410_998)">
<path id="Vector" d="M22.9995 11.4837C22.9991 11.3184 22.9953 11.154 22.9876 10.9903V1.65606L20.4148 4.23659C18.3093 1.65106 15.1055 0 11.5177 0C7.78345 0 4.46625 1.78747 2.36914 4.55589L6.58636 8.83052C6.99932 8.06543 7.58422 7.40717 8.29479 6.9078C9.03114 6.33183 10.0745 5.86037 11.5173 5.86037C11.6917 5.86037 11.8263 5.88112 11.9252 5.91954C13.7133 6.06094 15.2631 7.05073 16.1757 8.48701L13.1905 11.4814C16.9715 11.4664 21.2431 11.4575 22.9991 11.4833" fill="#1C3AA9"/>
<path id="Vector_2" d="M11.451 0.000610352C11.2857 0.00137882 11.1221 0.00522119 10.9588 0.0125217H1.65191L4.2251 2.59305C1.64731 4.7052 0.000976562 7.9178 0.000976562 11.5166C0.000976562 15.2617 1.78339 18.5892 4.54363 20.6921L8.80532 16.4624C8.0424 16.0483 7.38621 15.4617 6.88875 14.7491C6.31416 14.0106 5.84422 12.9644 5.84422 11.5169C5.84422 11.3421 5.86453 11.2069 5.90286 11.1077C6.04431 9.3145 7.03096 7.76026 8.46302 6.84501L11.4483 9.83898C11.4333 6.04657 11.4245 1.76233 11.4502 0.000994588" fill="#4285F4"/>
<path id="Vector_3" d="M0.000976562 11.5164C0.00174319 11.6816 0.00557633 11.846 0.0128593 12.0097V21.344L2.58566 18.7634C4.69159 21.349 7.89495 23 11.4831 23C15.217 23 18.5342 21.2126 20.6313 18.4441L16.4141 14.1695C16.0009 14.9364 15.4137 15.5946 14.7057 16.0922C13.9693 16.6682 12.9263 17.1397 11.4831 17.1397C11.3087 17.1397 11.1742 17.1189 11.0753 17.0805C9.28753 16.9391 7.7374 15.9493 6.82512 14.513L9.81037 11.5187C6.02897 11.5336 1.7577 11.5425 0.00135988 11.5167" fill="#ABABAB"/>
</g>
<defs>
<clipPath id="clip0_410_998">
<rect width="23" height="23" fill="white"/>
</clipPath>
</defs>
</svg>
