<svg width="35" height="35" viewBox="0 0 35 35" fill="none" xmlns="http://www.w3.org/2000/svg">
<path d="M19.585 14.3896C18.7954 14.3896 18.1836 15.0015 18.1836 15.7568C18.1836 16.5122 18.7954 17.124 19.585 17.124C20.3062 17.124 20.918 16.5122 20.918 15.7568C20.918 15.0015 20.3062 14.3896 19.585 14.3896ZM10.0146 14.3896C9.2251 14.3896 8.61328 15.0015 8.61328 15.7568C8.61328 16.5122 9.2251 17.124 10.0146 17.124C10.7358 17.124 11.3477 16.5122 11.3477 15.7568C11.3477 15.0015 10.7358 14.3896 10.0146 14.3896Z" fill="#00AEEF"/>
<path d="M30.5567 11.7919C28.9126 9.53608 26.6158 8.02875 24.0967 7.34857V7.35199C23.5122 6.70258 22.8526 6.10443 22.1143 5.57123C16.5191 1.50385 8.66458 2.74457 4.58011 8.33979C1.28861 12.8857 1.42874 19.0004 4.78519 23.3447L4.81253 27.8769C4.81253 27.9863 4.82962 28.0956 4.8638 28.1982C5.04495 28.7758 5.66019 29.0937 6.23441 28.9125L10.5616 27.5488C11.7066 27.9555 12.8892 28.1879 14.065 28.2529L14.0479 28.2665C17.0933 30.4848 21.0855 31.1513 24.7461 29.9413L29.0904 31.3564C29.1997 31.3906 29.3125 31.4111 29.4287 31.4111C30.0337 31.4111 30.5225 30.9223 30.5225 30.3173V25.7372C33.5337 21.6494 33.6123 15.9995 30.5567 11.7919ZM11.0401 25.122L10.6299 24.9511L7.24613 26.0107L7.21195 22.456L6.93851 22.1484C4.04691 18.621 3.8555 13.5385 6.56253 9.80951C9.85745 5.29096 16.1739 4.29291 20.6787 7.55365C25.1973 10.8383 26.1988 17.1445 22.9346 21.6357C20.1968 25.392 15.2954 26.7797 11.0401 25.122ZM28.3008 24.541L28.0274 24.8828L28.0616 28.4374L24.7119 27.3095L24.3018 27.4804C22.3877 28.1913 20.3472 28.2495 18.4571 27.7197L18.4502 27.7163C20.9761 26.9404 23.2661 25.3681 24.917 23.1054C27.5284 19.5063 27.9522 14.9843 26.4346 11.1288L26.4551 11.1425C27.2412 11.7065 27.9624 12.4106 28.5742 13.2617C31.0557 16.666 30.9156 21.3007 28.3008 24.541Z" fill="#00AEEF" fill-opacity="0.75"/>
<path d="M14.7998 14.3896C14.0103 14.3896 13.3984 15.0015 13.3984 15.7568C13.3984 16.5122 14.0103 17.124 14.7998 17.124C15.521 17.124 16.1328 16.5122 16.1328 15.7568C16.1328 15.0015 15.521 14.3896 14.7998 14.3896Z" fill="#00AEEF"/>
</svg>
