<svg width="51" height="35" viewBox="0 0 51 35" fill="none" xmlns="http://www.w3.org/2000/svg">
<g id="Control">
<path id="Vector" d="M15.7512 13.125H4.2002V21.875H15.7512L22.0517 17.5L15.7512 13.125ZM12.6009 18.9583H8.40054V16.0416H12.6009V18.9583ZM31.5025 10.9375V2.91663H18.9014V10.9375L25.2019 15.3125L31.5025 10.9375ZM23.1018 5.83329H27.3021V8.74996H23.1018V5.83329ZM18.9014 24.0625V32.0833H31.5025V24.0625L25.2019 19.6875L18.9014 24.0625ZM27.3021 29.1666H23.1018V26.25H27.3021V29.1666ZM34.6527 13.125L28.3522 17.5L34.6527 21.875H46.2037V13.125H34.6527ZM42.0033 18.9583H37.803V16.0416H42.0033V18.9583Z" fill="#022D3D"/>
</g>
</svg>
