<svg width="27" height="27" viewBox="0 0 27 27" fill="none" xmlns="http://www.w3.org/2000/svg">
<path d="M9.20248 16.5729L10.2816 16.7625C10.3077 16.5969 10.2993 16.4273 10.2571 16.2654C10.2148 16.1035 10.1397 15.9534 10.037 15.8253C9.93434 15.6972 9.80648 15.5943 9.66236 15.5237C9.51824 15.4532 9.36131 15.4166 9.20248 15.4167V16.5729ZM25.2441 16.5729V17.7292C25.5342 17.7292 25.8124 17.6073 26.0175 17.3905C26.2227 17.1737 26.3379 16.8796 26.3379 16.5729H25.2441ZM22.3275 7.32864e-07H5.76081V2.3125H22.3275V7.32864e-07ZM4.01081 17.7292H9.20248V15.4167H4.01081V17.7292ZM8.12331 16.3833L6.94789 23.8372L9.10623 24.218L10.2816 16.7625L8.12331 16.3833ZM9.46498 26.9792H9.77706V24.6667H9.46643L9.46498 26.9792ZM14.3285 24.4046L17.9962 18.5879L16.1762 17.3052L12.5085 23.1219L14.3285 24.4046ZM19.5129 17.7292H25.2441V15.4167H19.5129V17.7292ZM26.3379 16.5729V4.23958H24.1504V16.5729H26.3379ZM1.82769 3.40708L0.0776848 12.6571L2.22143 13.1119L3.97143 3.86187L1.82769 3.40863V3.40708ZM17.9962 18.5879C18.1626 18.3238 18.3881 18.1088 18.6527 17.959C18.9173 17.8092 19.2128 17.7308 19.5129 17.7307V15.4182C18.1712 15.4182 16.92 16.1258 16.1762 17.3052L17.9962 18.5879ZM6.94789 23.8372C6.88713 24.2236 6.90668 24.6209 7.00518 24.9985C7.10369 25.3761 7.27879 25.7265 7.51832 26.0253C7.75785 26.3242 8.05606 26.5643 8.39222 26.729C8.72839 26.8937 9.09446 26.9791 9.46498 26.9792L9.46643 24.6667C9.41357 24.6665 9.35991 24.6542 9.31199 24.6307C9.26407 24.6071 9.22157 24.5727 9.18745 24.5301C9.15332 24.4874 9.12838 24.4374 9.11435 24.3835C9.10033 24.3296 9.09756 24.2732 9.10623 24.218L6.94789 23.8372ZM4.01081 15.4182C2.85873 15.4182 1.99831 14.3051 2.22289 13.1134L0.0776848 12.6586C-0.038367 13.2736 -0.0239222 13.9097 0.119981 14.518C0.263884 15.1264 0.533662 15.6935 0.909869 16.1783C1.28608 16.6632 1.75934 17.0538 2.29556 17.3219C2.83179 17.5901 3.41761 17.7292 4.01081 17.7292V15.4167V15.4182ZM5.76081 7.32864e-07C4.83374 -0.00019148 3.93523 0.340706 3.21816 0.961875C2.50108 1.58304 2.00973 2.44766 1.82769 3.40863L3.97143 3.86342C4.0541 3.4262 4.27762 3.03281 4.6039 2.75029C4.93019 2.46777 5.33905 2.31206 5.76081 2.3125V7.32864e-07ZM9.77706 26.9792C10.6773 26.9791 11.5637 26.7456 12.3574 26.2965C13.1511 25.8474 13.8277 25.198 14.3271 24.4061L12.5085 23.1219C12.2088 23.5973 11.8026 23.9885 11.3261 24.258C10.8496 24.5275 10.3175 24.6669 9.77706 24.6667V26.9792ZM22.3275 2.3125C23.3337 2.3125 24.1504 3.17583 24.1504 4.23958H26.3379C26.3379 3.11518 25.9154 2.03682 25.1633 1.24175C24.4112 0.44667 23.3911 7.32864e-07 22.3275 7.32864e-07V2.3125Z" fill="#022D3D"/>
<path d="M19.4106 16.5729V1.15625" stroke="#022D3D" stroke-width="1.25"/>
</svg>
