<svg width="26" height="26" viewBox="0 0 26 26" fill="none" xmlns="http://www.w3.org/2000/svg">
<g id="Group">
<path id="Vector" d="M16.625 15.8333L15.2692 16.0657C15.2365 15.8628 15.247 15.655 15.3001 15.4568C15.3531 15.2585 15.4474 15.0746 15.5765 14.9177C15.7055 14.7608 15.8661 14.6347 16.0472 14.5481C16.2282 14.4616 16.4254 14.4168 16.625 14.4167V15.8333ZM1.5 15.8333V17.25C1.13533 17.25 0.785591 17.1007 0.527728 16.8351C0.269866 16.5694 0.125 16.2091 0.125 15.8333H1.5ZM4.25 0.25H19.87V3.08333H4.25V0.25ZM21.52 17.25H16.625V14.4167H21.52V17.25ZM17.9821 15.601L19.089 22.4506L16.3775 22.9167L15.2692 16.0657L17.9821 15.601ZM16.3775 25.75H16.0833V22.9167H16.3775V25.75ZM11.5059 23.2269L8.04775 17.8804L10.3357 16.3079L13.7953 21.6544L11.5059 23.2269ZM6.90375 17.25H1.5V14.4167H6.90375V17.25ZM0.125 15.8333V4.5H2.875V15.8333H0.125ZM23.9153 3.667L25.5653 12.167L22.8703 12.7223L21.2202 4.22233L23.9153 3.667ZM8.04775 17.8804C7.92215 17.6865 7.75201 17.5274 7.55245 17.4175C7.35289 17.3075 7.13006 17.25 6.90375 17.25V14.4167C7.58282 14.4167 8.25137 14.5895 8.85007 14.9197C9.44877 15.2498 9.95909 15.7272 10.3357 16.3093L8.04775 17.8818V17.8804ZM19.089 22.4506C19.1547 22.8564 19.1338 23.2721 19.0278 23.6688C18.9218 24.0654 18.7332 24.4336 18.4752 24.7475C18.2172 25.0615 17.8958 25.3139 17.5336 25.487C17.1713 25.6601 16.7768 25.7498 16.3775 25.75V22.9167L19.089 22.4506ZM21.52 14.4167C21.7235 14.4167 21.9244 14.3703 22.1084 14.2807C22.2923 14.1911 22.4546 14.0605 22.5837 13.8984C22.7127 13.7363 22.8052 13.5468 22.8545 13.3434C22.9039 13.14 22.9101 12.9279 22.8703 12.7223L25.5653 12.167C25.6848 12.7835 25.6702 13.4196 25.5224 14.0295C25.3746 14.6395 25.0973 15.208 24.7105 15.6942C24.3237 16.1804 23.837 16.5721 23.2855 16.8412C22.7341 17.1102 22.1315 17.2498 21.5214 17.25V14.4167H21.52ZM19.87 0.25C20.8237 0.249938 21.748 0.590374 22.4856 1.21337C23.2231 1.83637 23.7283 2.70343 23.9153 3.667L21.2202 4.22233C21.1579 3.90083 20.9892 3.61156 20.743 3.40386C20.4967 3.19616 20.1882 3.08288 19.87 3.08333V0.25ZM16.0833 25.75C15.1776 25.7502 14.286 25.52 13.4875 25.0799C12.6889 24.6397 12.0083 24.0032 11.5059 23.2269L13.7953 21.6544C14.0463 22.0426 14.3865 22.3609 14.7856 22.5811C15.1848 22.8013 15.6305 22.9166 16.0833 22.9167V25.75ZM4.25 3.08333C3.88533 3.08333 3.53559 3.23259 3.27773 3.49827C3.01987 3.76394 2.875 4.12428 2.875 4.5H0.125C0.125 3.37283 0.559597 2.29183 1.33318 1.4948C2.10677 0.697767 3.15598 0.25 4.25 0.25V3.08333Z" fill="#022D3D"/>
<path id="Vector_2" d="M7 15.8333V1.66663" stroke="#022D3D" stroke-width="1.66667"/>
</g>
</svg>
