<svg width="23" height="24" viewBox="0 0 23 24" fill="none" xmlns="http://www.w3.org/2000/svg">
<path d="M23 12.2758C23 11.4991 22.9233 10.6974 22.7955 9.9458H11.7269V14.3804H18.0664C17.8108 15.8084 16.9672 17.0611 15.7146 17.8629L19.4979 20.7441C21.7219 18.7147 23 15.7583 23 12.2758Z" fill="#4280EF"/>
<path d="M11.7268 23.5C14.8966 23.5 17.5551 22.4727 19.4979 20.719L15.7146 17.8628C14.6665 18.5643 13.3117 18.9652 11.7268 18.9652C8.6593 18.9652 6.07747 16.9358 5.13165 14.23L1.24613 17.1613C3.24002 21.0447 7.27892 23.5 11.7268 23.5Z" fill="#34A353"/>
<path d="M5.1317 14.205C4.64601 12.7769 4.64601 11.2236 5.1317 9.79548L1.24618 6.83911C-0.415393 10.0961 -0.415393 13.9294 1.24618 17.1614L5.1317 14.205Z" fill="#F6B704"/>
<path d="M11.7268 5.06026C13.3884 5.03521 15.0244 5.66156 16.2258 6.78899L19.5746 3.48186C17.4529 1.52765 14.641 0.475383 11.7268 0.500437C7.27892 0.500437 3.24002 2.95573 1.24613 6.8391L5.13165 9.79547C6.07747 7.06458 8.6593 5.06026 11.7268 5.06026Z" fill="#E54335"/>
</svg>
