<svg width="40" height="35" viewBox="0 0 40 35" fill="none" xmlns="http://www.w3.org/2000/svg">
<g id="IconoUs">
<path id="Vector" d="M20 5.31799C15.1813 5.31799 11.25 8.663 11.25 12.7632C11.25 15.3264 12.7875 17.6025 15.1175 18.9459C10.6588 20.5732 7.5 24.3383 7.5 28.7171H10C10 24.0054 14.4625 20.2083 20 20.2083C25.5375 20.2083 30 24.0054 30 28.7171H32.5C32.5 24.3383 29.3412 20.5742 24.8825 18.9448C26.0717 18.2617 27.046 17.3411 27.7202 16.2635C28.3945 15.1858 28.748 13.984 28.75 12.7632C28.75 8.663 24.8188 5.31799 20 5.31799ZM20 7.44519C23.4663 7.44519 26.25 9.81382 26.25 12.7632C26.25 15.7125 23.4663 18.0812 20 18.0812C16.5337 18.0812 13.75 15.7125 13.75 12.7632C13.75 9.81382 16.5337 7.44519 20 7.44519Z" fill="#FFB564"/>
</g>
</svg>
