<svg width="50" height="46" viewBox="0 0 50 46" fill="none" xmlns="http://www.w3.org/2000/svg">
<path d="M49.9899 13.3203C49.7682 9.69803 48.3545 6.30751 46.0348 3.83463C43.7152 1.36176 40.6628 -0.0088634 37.4951 4.31363e-05H12.5054C9.30112 -0.00492604 6.21765 1.40143 3.89223 3.92845C1.5668 6.45547 0.177189 9.91 0.0105693 13.5781C-0.0035231 13.8261 -0.0035231 14.0749 0.0105693 14.3229V35.8072C0.00393834 37.1259 0.225643 38.4331 0.662842 39.6529C1.10004 40.8728 1.74404 41.9811 2.55754 42.9136C3.37104 43.8461 4.33787 44.5843 5.40203 45.0855C6.46618 45.5866 7.60651 45.8408 8.75695 45.8332C12.3305 45.8332 14.5546 42.7967 16.7287 39.8462C17.5283 38.7863 18.353 37.6691 19.2276 36.6952C20.388 35.7209 21.6914 34.9932 23.076 34.5468C24.3544 34.3749 25.646 34.3749 26.9244 34.5468C28.309 34.9932 29.6125 35.7209 30.7728 36.6952C31.6475 37.6691 32.4721 38.7863 33.2718 39.8462C35.4459 42.7108 37.67 45.8332 41.2435 45.8332C42.394 45.8408 43.5343 45.5866 44.5984 45.0855C45.6626 44.5843 46.6294 43.8461 47.4429 42.9136C48.2564 41.9811 48.9004 40.8728 49.3376 39.6529C49.7748 38.4331 49.9965 37.1259 49.9899 35.8072V14.3229C50.0034 14.0749 50.0034 13.8261 49.9899 13.5781V13.3203ZM44.992 35.8072C44.992 36.9468 44.597 38.0397 43.8941 38.8455C43.1911 39.6513 42.2377 40.104 41.2435 40.104C39.994 40.104 38.7445 38.2707 37.0952 36.1509C36.2456 35.0337 35.296 33.716 34.2214 32.5416C32.412 30.8706 30.3182 29.651 28.074 28.9608C26.0412 28.5406 23.9593 28.5406 21.9265 28.9608C19.6823 29.651 17.5885 30.8706 15.779 32.5416C14.7045 33.716 13.7549 35.0337 12.9052 36.1509C11.3559 38.2707 10.0064 40.104 8.75695 40.104C7.7628 40.104 6.80937 39.6513 6.1064 38.8455C5.40343 38.0397 5.0085 36.9468 5.0085 35.8072V14.3229C5.0207 14.18 5.0207 14.0361 5.0085 13.8932C5.10475 11.6893 5.93689 9.61229 7.33254 8.09245C8.72818 6.57261 10.5804 5.72642 12.5054 5.72918H37.4951C39.3679 5.71981 41.1759 6.51431 42.5634 7.95631C43.9508 9.3983 44.8172 11.3834 44.992 13.5208V13.8646C44.9795 14.017 44.9795 14.1705 44.992 14.3229V35.8072Z" fill="#022D3D"/>
<path d="M34.2979 25.4581C35.6781 25.4581 36.7969 24.1756 36.7969 22.5936C36.7969 21.0115 35.6781 19.729 34.2979 19.729C32.9178 19.729 31.799 21.0115 31.799 22.5936C31.799 24.1756 32.9178 25.4581 34.2979 25.4581Z" fill="#022D3D"/>
<path d="M39.2958 19.729C40.676 19.729 41.7948 18.4465 41.7948 16.8644C41.7948 15.2824 40.676 13.9999 39.2958 13.9999C37.9157 13.9999 36.7969 15.2824 36.7969 16.8644C36.7969 18.4465 37.9157 19.729 39.2958 19.729Z" fill="#022D3D"/>
<path d="M34.2979 14C35.6781 14 36.7969 12.7174 36.7969 11.1354C36.7969 9.55332 35.6781 8.27081 34.2979 8.27081C32.9178 8.27081 31.799 9.55332 31.799 11.1354C31.799 12.7174 32.9178 14 34.2979 14Z" fill="#022D3D"/>
<path d="M29.2999 19.729C30.68 19.729 31.7988 18.4465 31.7988 16.8644C31.7988 15.2824 30.68 13.9999 29.2999 13.9999C27.9197 13.9999 26.8009 15.2824 26.8009 16.8644C26.8009 18.4465 27.9197 19.729 29.2999 19.729Z" fill="#022D3D"/>
<path d="M14.3062 22.5936C17.0664 22.5936 19.3041 20.0286 19.3041 16.8645C19.3041 13.7003 17.0664 11.1353 14.3062 11.1353C11.5459 11.1353 9.30823 13.7003 9.30823 16.8645C9.30823 20.0286 11.5459 22.5936 14.3062 22.5936Z" fill="#022D3D"/>
</svg>
