<svg width="24" height="22" viewBox="0 0 24 22" fill="none" xmlns="http://www.w3.org/2000/svg">
<path d="M23.9951 6.39374C23.8887 4.65505 23.2101 3.0276 22.0967 1.84062C20.9833 0.653644 19.5181 -0.00425443 17.9976 2.07054e-05H6.00259C4.46454 -0.0023645 2.98447 0.672684 1.86827 1.88565C0.752066 3.09863 0.0850506 4.7568 0.00507327 6.51749C-0.00169109 6.63653 -0.00169109 6.75595 0.00507327 6.87499V17.1874C0.0018904 17.8204 0.108309 18.4479 0.318164 19.0334C0.528019 19.6189 0.83714 20.1509 1.22762 20.5985C1.6181 21.0461 2.08218 21.4005 2.59297 21.641C3.10377 21.8816 3.65112 22.0036 4.20334 21.9999C5.91863 21.9999 6.98618 20.5424 8.02975 19.1262C8.41359 18.6174 8.80943 18.0812 9.22926 17.6137C9.78622 17.146 10.4119 16.7967 11.0765 16.5824C11.6901 16.4999 12.3101 16.4999 12.9237 16.5824C13.5883 16.7967 14.214 17.146 14.771 17.6137C15.1908 18.0812 15.5866 18.6174 15.9705 19.1262C17.014 20.5012 18.0816 21.9999 19.7969 21.9999C20.3491 22.0036 20.8965 21.8816 21.4072 21.641C21.918 21.4005 22.3821 21.0461 22.7726 20.5985C23.1631 20.1509 23.4722 19.6189 23.6821 19.0334C23.8919 18.4479 23.9983 17.8204 23.9951 17.1874V6.87499C24.0016 6.75594 24.0016 6.63654 23.9951 6.51749V6.39374ZM21.5961 17.1874C21.5961 17.7344 21.4066 18.2591 21.0691 18.6458C20.7317 19.0326 20.2741 19.2499 19.7969 19.2499C19.1971 19.2499 18.5974 18.3699 17.8057 17.3524C17.3979 16.8162 16.9421 16.1837 16.4263 15.62C15.5578 14.8179 14.5527 14.2325 13.4755 13.9012C12.4998 13.6995 11.5004 13.6995 10.5247 13.9012C9.4475 14.2325 8.44246 14.8179 7.57394 15.62C7.05816 16.1837 6.60234 16.8162 6.19451 17.3524C5.45082 18.3699 4.80309 19.2499 4.20334 19.2499C3.72614 19.2499 3.2685 19.0326 2.93107 18.6458C2.59364 18.2591 2.40408 17.7344 2.40408 17.1874V6.87499C2.40994 6.8064 2.40994 6.73733 2.40408 6.66874C2.45028 5.61087 2.84971 4.6139 3.51962 3.88438C4.18953 3.15485 5.07858 2.74868 6.00259 2.75001H17.9976C18.8966 2.74551 19.7644 3.12687 20.4304 3.81903C21.0964 4.51119 21.5122 5.46401 21.5961 6.48999V6.65499C21.5902 6.72816 21.5902 6.80182 21.5961 6.87499V17.1874Z" fill="#00AEEF"/>
<path d="M16.4632 12.22C17.1256 12.22 17.6627 11.6044 17.6627 10.845C17.6627 10.0856 17.1256 9.46997 16.4632 9.46997C15.8007 9.46997 15.2637 10.0856 15.2637 10.845C15.2637 11.6044 15.8007 12.22 16.4632 12.22Z" fill="#00AEEF"/>
<path d="M18.8621 9.46996C19.5246 9.46996 20.0616 8.85435 20.0616 8.09496C20.0616 7.33558 19.5246 6.71997 18.8621 6.71997C18.1996 6.71997 17.6626 7.33558 17.6626 8.09496C17.6626 8.85435 18.1996 9.46996 18.8621 9.46996Z" fill="#00AEEF"/>
<path d="M16.4632 6.71996C17.1256 6.71996 17.6627 6.10435 17.6627 5.34496C17.6627 4.58558 17.1256 3.96997 16.4632 3.96997C15.8007 3.96997 15.2637 4.58558 15.2637 5.34496C15.2637 6.10435 15.8007 6.71996 16.4632 6.71996Z" fill="#00AEEF"/>
<path d="M14.0638 9.46996C14.7262 9.46996 15.2633 8.85435 15.2633 8.09496C15.2633 7.33558 14.7262 6.71997 14.0638 6.71997C13.4013 6.71997 12.8643 7.33558 12.8643 8.09496C12.8643 8.85435 13.4013 9.46996 14.0638 9.46996Z" fill="#00AEEF"/>
<path d="M6.86678 10.8449C8.19172 10.8449 9.26579 9.61374 9.26579 8.09496C9.26579 6.57618 8.19172 5.34497 6.86678 5.34497C5.54185 5.34497 4.46777 6.57618 4.46777 8.09496C4.46777 9.61374 5.54185 10.8449 6.86678 10.8449Z" fill="#00AEEF"/>
</svg>
