<svg width="20" height="20" viewBox="0 0 20 20" fill="none" xmlns="http://www.w3.org/2000/svg">
<path d="M19.996 5.81249C19.9073 4.23187 19.3418 2.75237 18.4139 1.67329C17.4861 0.594222 16.2651 -0.00386767 14.998 1.88231e-05H5.00216C3.72045 -0.00214955 2.48706 0.611531 1.55689 1.71423C0.626722 2.81693 0.0708755 4.32437 0.00422772 5.92499C-0.00140924 6.03321 -0.00140924 6.14177 0.00422772 6.24999V15.6249C0.00157534 16.2004 0.0902573 16.7708 0.265137 17.3031C0.440016 17.8354 0.697617 18.319 1.02302 18.7259C1.34842 19.1328 1.73515 19.455 2.16081 19.6737C2.58647 19.8923 3.0426 20.0032 3.50278 19.9999C4.93219 19.9999 5.82182 18.6749 6.69146 17.3874C7.01133 16.9249 7.34119 16.4374 7.69105 16.0124C8.15518 15.5873 8.67657 15.2698 9.23041 15.075C9.74178 14.9999 10.2584 14.9999 10.7698 15.075C11.3236 15.2698 11.845 15.5873 12.3091 16.0124C12.659 16.4374 12.9889 16.9249 13.3087 17.3874C14.1784 18.6374 15.068 19.9999 16.4974 19.9999C16.9576 20.0032 17.4137 19.8923 17.8394 19.6737C18.265 19.455 18.6518 19.1328 18.9772 18.7259C19.3026 18.319 19.5602 17.8354 19.735 17.3031C19.9099 16.7708 19.9986 16.2004 19.996 15.6249V6.24999C20.0013 6.14176 20.0013 6.03322 19.996 5.92499V5.81249ZM17.9968 15.6249C17.9968 16.1222 17.8388 16.5991 17.5576 16.9508C17.2764 17.3024 16.8951 17.4999 16.4974 17.4999C15.9976 17.4999 15.4978 16.6999 14.8381 15.7749C14.4982 15.2875 14.1184 14.7125 13.6886 14.2C12.9648 13.4708 12.1273 12.9386 11.2296 12.6375C10.4165 12.4541 9.5837 12.4541 8.7706 12.6375C7.87291 12.9386 7.03539 13.4708 6.31162 14.2C5.8818 14.7125 5.50195 15.2875 5.16209 15.7749C4.54235 16.6999 4.00257 17.4999 3.50278 17.4999C3.10512 17.4999 2.72375 17.3024 2.44256 16.9508C2.16137 16.5991 2.0034 16.1222 2.0034 15.6249V6.24999C2.00828 6.18764 2.00828 6.12484 2.0034 6.06249C2.0419 5.10079 2.37476 4.19446 2.93302 3.53125C3.49127 2.86805 4.23215 2.4988 5.00216 2.50001H14.998C15.7471 2.49592 16.4704 2.84261 17.0253 3.47184C17.5803 4.10108 17.9269 4.96729 17.9968 5.89999V6.04999C17.9918 6.11651 17.9918 6.18347 17.9968 6.24999V15.6249Z" fill="#077198"/>
<path d="M13.7192 11.109C14.2712 11.109 14.7187 10.5494 14.7187 9.859C14.7187 9.16865 14.2712 8.60901 13.7192 8.60901C13.1671 8.60901 12.7196 9.16865 12.7196 9.859C12.7196 10.5494 13.1671 11.109 13.7192 11.109Z" fill="#077198"/>
<path d="M15.7183 8.609C16.2704 8.609 16.7179 8.04936 16.7179 7.359C16.7179 6.66865 16.2704 6.10901 15.7183 6.10901C15.1663 6.10901 14.7188 6.66865 14.7188 7.359C14.7188 8.04936 15.1663 8.609 15.7183 8.609Z" fill="#077198"/>
<path d="M13.7192 6.10912C14.2712 6.10912 14.7187 5.54948 14.7187 4.85913C14.7187 4.16877 14.2712 3.60913 13.7192 3.60913C13.1671 3.60913 12.7196 4.16877 12.7196 4.85913C12.7196 5.54948 13.1671 6.10912 13.7192 6.10912Z" fill="#077198"/>
<path d="M11.72 8.609C12.272 8.609 12.7195 8.04936 12.7195 7.359C12.7195 6.66865 12.272 6.10901 11.72 6.10901C11.1679 6.10901 10.7204 6.66865 10.7204 7.359C10.7204 8.04936 11.1679 8.609 11.72 8.609Z" fill="#077198"/>
<path d="M5.72247 9.85899C6.82658 9.85899 7.72164 8.7397 7.72164 7.359C7.72164 5.97829 6.82658 4.85901 5.72247 4.85901C4.61836 4.85901 3.7233 5.97829 3.7233 7.359C3.7233 8.7397 4.61836 9.85899 5.72247 9.85899Z" fill="#077198"/>
</svg>
