<svg width="29" height="27" viewBox="0 0 29 27" fill="none" xmlns="http://www.w3.org/2000/svg">
<path d="M2.19463e-05 13.4999C2.19463e-05 6.03517 6.32902 -0.00012207 14.157 -0.00012207C21.985 -0.00012207 28.314 6.03517 28.314 13.4999C28.314 20.9646 21.985 26.9999 14.157 26.9999C6.32902 26.9999 2.19463e-05 20.9646 2.19463e-05 13.4999ZM26.6484 13.4999C26.6484 6.90869 21.0689 1.58811 14.157 1.58811C7.24506 1.58811 1.66555 6.90869 1.66555 13.4999C1.66555 20.091 7.24506 25.4116 14.157 25.4116C21.0689 25.4116 26.6484 20.091 26.6484 13.4999Z" fill="#C1EEFF"/>
<path d="M12.7413 20.091L19.6532 13.4999L12.7413 6.9087L13.9072 5.79694L21.985 13.4999L13.9072 21.2028L12.7413 20.091Z" fill="#C1EEFF"/>
<path d="M20.8191 12.7057V14.294H6.66209V12.7057H20.8191Z" fill="#C1EEFF"/>
</svg>
