<svg width="24" height="24" viewBox="0 0 24 24" fill="none" xmlns="http://www.w3.org/2000/svg">
<g id="Vector">
<path id="Vector_2" d="M17.1411 0.558539C17.8819 0.168504 18.7277 -0.024163 19.5825 0.00242264C20.4374 0.0290083 21.2669 0.273781 21.9769 0.708938C22.6869 1.14409 23.2489 1.7522 23.5991 2.46417C23.9493 3.17614 24.0736 3.96346 23.958 4.73668C23.8424 5.50991 23.4914 6.23805 22.945 6.83842C22.3986 7.43878 21.6786 7.8873 20.8668 8.13302C20.055 8.37875 19.1839 8.41184 18.3525 8.22853C17.5211 8.04522 16.7628 7.65286 16.1635 7.09602L8.98352 10.8785C9.20617 11.6102 9.20617 12.3834 8.98352 13.115L16.1635 16.8975C16.9442 16.1752 17.9865 15.7369 19.0956 15.6647C20.2047 15.5924 21.3047 15.8911 22.19 16.505C23.0753 17.1188 23.6853 18.0058 23.906 19.0001C24.1267 19.9945 23.943 21.0281 23.3893 21.9078C22.8337 22.7891 21.9446 23.455 20.889 23.7804C19.8333 24.1059 18.6838 24.0685 17.6563 23.6753C16.6287 23.2821 15.7939 22.5601 15.3085 21.645C14.8231 20.7299 14.7206 19.6845 15.0202 18.7053L7.84021 14.9218C7.20367 15.5132 6.38857 15.9184 5.49875 16.0856C4.60894 16.2529 3.6847 16.1747 2.84379 15.8609C2.00287 15.5472 1.28335 15.0122 0.776904 14.324C0.270454 13.6358 0 12.8257 0 11.9968C0 11.1679 0.270454 10.3577 0.776904 9.66955C1.28335 8.98138 2.00287 8.44635 2.84379 8.13262C3.6847 7.81889 4.60894 7.74067 5.49875 7.90792C6.38857 8.07518 7.20367 8.48033 7.84021 9.07176L15.0202 5.28927C14.7493 4.39778 14.8105 3.44942 15.1944 2.59315C15.5783 1.73689 16.263 1.02121 17.1411 0.558539ZM21.4079 3.12993C21.2588 2.89074 21.0594 2.68081 20.8211 2.51224C20.5828 2.34366 20.3102 2.21976 20.0192 2.14767C19.7282 2.07558 19.4244 2.05672 19.1254 2.09219C18.8263 2.12765 18.5379 2.21673 18.2768 2.35431C18.0156 2.49188 17.7868 2.67523 17.6037 2.8938C17.4205 3.11236 17.2865 3.36183 17.2094 3.62784C17.1323 3.89384 17.1137 4.17113 17.1545 4.44373C17.1954 4.71634 17.2949 4.97888 17.4475 5.21625C17.7528 5.69152 18.2519 6.0373 18.8356 6.17812C19.4194 6.31894 20.0405 6.24336 20.5634 5.96789C21.0864 5.69242 21.4686 5.23942 21.6268 4.70774C21.785 4.17605 21.7063 3.60886 21.4079 3.12993ZM2.36946 12.5465C2.46214 12.8542 2.63084 13.1384 2.86262 13.3773C3.0944 13.6162 3.38309 13.8034 3.70654 13.9247C4.02999 14.046 4.37958 14.098 4.7285 14.0768C5.07742 14.0556 5.41638 13.9618 5.71936 13.8025C6.08926 13.6074 6.39186 13.3217 6.59286 12.9777C6.79386 12.6337 6.88522 12.2452 6.85657 11.8563C6.82793 11.4674 6.68043 11.0935 6.43079 10.7772C6.18116 10.4608 5.83938 10.2146 5.4442 10.0664C5.04902 9.91828 4.61625 9.8741 4.19495 9.9389C3.77366 10.0037 3.38068 10.1749 3.06059 10.4331C2.74049 10.6913 2.50608 11.0261 2.38392 11.3997C2.26177 11.7732 2.25676 12.1705 2.36946 12.5465ZM20.571 18.0148C20.3108 17.8756 20.0231 17.7848 19.7243 17.7475C19.4255 17.7102 19.1216 17.7273 18.8301 17.7976C18.5385 17.8679 18.2651 17.9902 18.0256 18.1573C17.786 18.3244 17.5851 18.5331 17.4343 18.7714C17.2835 19.0097 17.1859 19.2728 17.147 19.5457C17.1081 19.8185 17.1288 20.0957 17.2078 20.3612C17.2868 20.6268 17.4226 20.8754 17.6074 21.0929C17.7921 21.3103 18.0222 21.4923 18.2844 21.6283C18.8093 21.9006 19.4309 21.9724 20.0137 21.828C20.5964 21.6837 21.0929 21.3349 21.3948 20.8578C21.6967 20.3807 21.7795 19.814 21.6252 19.2813C21.4709 18.7487 21.0919 18.2934 20.571 18.0148Z" fill="#022D3D"/>
</g>
</svg>
