<svg width="25" height="25" viewBox="0 0 25 25" fill="none" xmlns="http://www.w3.org/2000/svg">
<g id="Accion">
<path id="Vector" d="M7.29165 5.20834H23.9583V9.37501H22.9166V10.4167H16.6666C16.3904 10.4167 16.1254 10.5264 15.9301 10.7218C15.7347 10.9171 15.625 11.1821 15.625 11.4583V12.5C15.625 13.0525 15.4055 13.5824 15.0148 13.9731C14.6241 14.3638 14.0942 14.5833 13.5416 14.5833H10.0208C9.62498 14.5833 9.2604 14.8125 9.08331 15.1667L6.53123 20.2604C6.35415 20.6146 5.99998 20.8333 5.60415 20.8333H2.08331C2.08331 20.8333 -1.04169 20.8333 3.12498 14.5833C3.12498 14.5833 6.24998 10.4167 2.08331 10.4167V5.20834H3.12498L3.64581 4.16667H6.77081L7.29165 5.20834ZM14.5833 12.5V11.4583C14.5833 11.1821 14.4736 10.9171 14.2782 10.7218C14.0829 10.5264 13.8179 10.4167 13.5416 10.4167H12.5C12.5 10.4167 11.4583 11.4583 12.5 12.5C11.9474 12.5 11.4175 12.2805 11.0268 11.8898C10.6361 11.4991 10.4166 10.9692 10.4166 10.4167C10.1404 10.4167 9.87543 10.5264 9.68008 10.7218C9.48473 10.9171 9.37498 11.1821 9.37498 11.4583V12.5C9.37498 12.7763 9.48473 13.0412 9.68008 13.2366C9.87543 13.4319 10.1404 13.5417 10.4166 13.5417H13.5416C13.8179 13.5417 14.0829 13.4319 14.2782 13.2366C14.4736 13.0412 14.5833 12.7763 14.5833 12.5Z" fill="#077198"/>
</g>
</svg>
