<svg width="25" height="25" viewBox="0 0 25 25" fill="none" xmlns="http://www.w3.org/2000/svg">
<g id="Aventura">
<path id="Vector" d="M12.5 0C5.60769 0 0 5.60769 0 12.5C0 19.3923 5.60769 25 12.5 25C19.3923 25 25 19.3923 25 12.5C25 5.60769 19.3923 0 12.5 0ZM11.4183 1.98365C11.4567 1.97885 11.499 1.98654 11.5385 1.98365V2.88462H13.4615V1.98269C15.9218 2.20279 18.2265 3.28025 19.9731 5.02686C21.7197 6.77347 22.7972 9.0782 23.0173 11.5385H22.1154V13.4615H23.0173C22.7972 15.9218 21.7197 18.2265 19.9731 19.9731C18.2265 21.7197 15.9218 22.7972 13.4615 23.0173V22.1154H11.5385V23.0173C9.0782 22.7972 6.77347 21.7197 5.02686 19.9731C3.28025 18.2265 2.20279 15.9218 1.98269 13.4615H2.88462V11.5385H1.98269C2.43654 6.49712 6.39327 2.49038 11.4183 1.98269V1.98365ZM18.3606 6.64038L10.1875 10.1865L6.63942 18.3596L14.8125 14.8135L18.3606 6.64038ZM12.5 11.0577C13.2692 11.0577 13.9423 11.7308 13.9423 12.5C13.9423 13.2692 13.2692 13.9423 12.5 13.9423C11.7308 13.9423 11.0577 13.2692 11.0577 12.5C11.0577 11.7308 11.7308 11.0577 12.5 11.0577Z" fill="#077198"/>
</g>
</svg>
