<svg width="25" height="25" viewBox="0 0 25 25" fill="none" xmlns="http://www.w3.org/2000/svg">
<g id="Carrera">
<path id="Vector" d="M8.44966 1.14519C8.47324 1.01921 8.47261 0.889514 8.44779 0.763794C8.42297 0.638074 8.37447 0.518889 8.30516 0.413304C8.23586 0.307719 8.14716 0.217882 8.04432 0.149121C7.94148 0.0803587 7.8266 0.0340709 7.70649 0.0130011C7.58638 -0.00806874 7.46347 -0.00349169 7.34507 0.0264608C7.22666 0.0564133 7.11516 0.111131 7.01718 0.187372C6.9192 0.263612 6.83673 0.359823 6.77466 0.470301C6.71259 0.580779 6.67218 0.703275 6.65583 0.830529L3.01723 23.8548C2.99364 23.9808 2.99428 24.1105 3.0191 24.2362C3.04392 24.3619 3.09242 24.4811 3.16172 24.5867C3.23103 24.6923 3.31973 24.7821 3.42257 24.8509C3.5254 24.9196 3.64028 24.9659 3.7604 24.987C3.88051 25.0081 4.00341 25.0035 4.12182 24.9735C4.24023 24.9436 4.35172 24.8889 4.44971 24.8126C4.54769 24.7364 4.63016 24.6402 4.69223 24.5297C4.7543 24.4192 4.79471 24.2967 4.81106 24.1695L6.02999 16.4563C7.49634 16.6827 9.08095 16.7576 10.329 17.6805C11.1012 18.2656 11.9941 18.649 12.9342 18.7991C14.6917 19.0792 16.2635 18.0604 17.9992 18.3501L20.3442 18.7223C20.8172 18.7991 21.3085 18.4153 21.3794 17.9165L22.9877 6.53096L22.9949 6.52328C23.0197 6.27265 22.9532 6.02148 22.809 5.82058C22.6647 5.61968 22.4535 5.48406 22.2181 5.44114L19.873 5.06891C18.121 4.79454 16.5455 5.78459 14.8099 5.51021C14.0315 5.38554 13.2911 5.07227 12.6468 4.595C11.3023 3.60304 9.70133 3.43803 8.124 3.20395L8.45148 1.14328L8.44966 1.14519ZM7.37627 7.93352L7.97664 4.14986C9.0664 4.30719 10.2198 4.39737 11.2295 4.85786L10.6929 8.62808C9.65585 8.18103 8.48422 8.09469 7.37627 7.93352ZM6.18099 15.5123L6.78136 11.7249C7.90933 11.8899 9.1046 11.9743 10.1616 12.4309L10.7074 8.6396C11.9045 9.15764 12.816 10.046 14.1513 10.2532L14.6971 6.45421C16.0398 6.66718 17.1514 6.1146 18.4412 6.00523L17.8955 9.77738C16.6038 9.8925 15.4867 10.4681 14.1477 10.2571L13.6274 14.0522C12.2884 13.8412 11.3751 12.949 10.1725 12.4328L9.62674 16.2242C8.54426 15.7656 7.32897 15.685 6.18099 15.5123ZM13.6292 14.0541C14.9646 14.2652 16.0871 13.6858 17.3788 13.5725L17.8955 9.77738C19.0871 9.66226 20.306 9.99035 21.4758 10.1784L20.9664 13.9697C19.7948 13.7836 18.5722 13.4536 17.3806 13.5725L16.8348 17.3639C15.5449 17.456 14.406 18.0546 13.0834 17.8435L13.6274 14.0522L13.6292 14.0541Z" fill="#077198"/>
</g>
</svg>
