<svg width="25" height="25" viewBox="0 0 25 25" fill="none" xmlns="http://www.w3.org/2000/svg">
<g id="Clasicos">
<path id="Vector" d="M11.8889 8.66071V8.15476C11.0741 7.89683 10.4074 7.40595 9.88889 6.68214C9.37037 5.95833 9.11111 5.11984 9.11111 4.16667C9.11111 3.01587 9.49074 2.03373 10.25 1.22024C11.0093 0.406746 11.9259 0 13 0C14.0741 0 14.9907 0.406746 15.75 1.22024C16.5093 2.03373 16.8889 3.01587 16.8889 4.16667C16.8889 5.11905 16.6296 5.95754 16.1111 6.68214C15.5926 7.40675 14.9259 7.89762 14.1111 8.15476V8.66071L21.8889 13.4524C22.2407 13.6706 22.5141 13.9635 22.7089 14.331C22.9037 14.6984 23.0007 15.1 23 15.5357V17.7976C23 18.2341 22.9026 18.6361 22.7078 19.0036C22.513 19.371 22.24 19.6635 21.8889 19.881L14.1111 24.6726C13.7593 24.8909 13.3889 25 13 25C12.6111 25 12.2407 24.8909 11.8889 24.6726L4.11111 19.881C3.75926 19.6627 3.48593 19.3698 3.29112 19.0024C3.0963 18.6349 2.99926 18.2333 3 17.7976V15.5357C3 15.0992 3.09741 14.6976 3.29223 14.331C3.48704 13.9643 3.76 13.6714 4.11111 13.4524L11.8889 8.66071ZM11.8889 15.4762V11.3988L7.22223 14.2857L13 17.8571L18.7778 14.2857L14.1111 11.3988V15.4762H11.8889Z" fill="#077198"/>
</g>
</svg>
