<svg width="25" height="25" viewBox="0 0 25 25" fill="none" xmlns="http://www.w3.org/2000/svg">
<g id="Escape">
<path id="Vector" d="M0 25V22.2222H2.77778V2.77778C2.77778 2.01389 3.05 1.35972 3.59444 0.81528C4.13889 0.270835 4.79259 -0.000923568 5.55556 2.35805e-06H19.4444C20.2083 2.35805e-06 20.8625 0.272225 21.4069 0.816669C21.9514 1.36111 22.2231 2.01482 22.2222 2.77778V22.2222H25V25H0ZM16.6667 22.2222H19.4444V2.77778H13.1944V1.25C14.213 1.43519 15.0463 1.90972 15.6944 2.67361C16.3426 3.4375 16.6667 4.32871 16.6667 5.34722V22.2222ZM11.1111 13.8889C11.5046 13.8889 11.8347 13.7556 12.1014 13.4889C12.3681 13.2222 12.5009 12.8926 12.5 12.5C12.5 12.1065 12.3667 11.7764 12.1 11.5097C11.8333 11.2431 11.5037 11.1102 11.1111 11.1111C10.7176 11.1111 10.3875 11.2444 10.1208 11.5111C9.85417 11.7778 9.7213 12.1074 9.72222 12.5C9.72222 12.8935 9.85556 13.2236 10.1222 13.4903C10.3889 13.7569 10.7185 13.8898 11.1111 13.8889Z" fill="#077198"/>
</g>
</svg>
