<svg width="25" height="25" viewBox="0 0 25 25" fill="none" xmlns="http://www.w3.org/2000/svg">
<g id="Group">
<path id="Vector" fill-rule="evenodd" clip-rule="evenodd" d="M7.29168 2.08331H10.4167C12.7313 2.08331 16.4136 3.23748 17.6552 6.96248C18.2229 8.66665 17.9906 10.1364 17.7552 11.6302C17.7344 11.7552 17.7156 11.8812 17.6958 12.0073C17.4698 13.4802 17.2479 15.2135 17.5656 17.7083H18.75C19.0263 17.7083 19.2912 17.8181 19.4866 18.0134C19.6819 18.2088 19.7917 18.4737 19.7917 18.75V21.875C19.7917 22.1512 19.6819 22.4162 19.4866 22.6115C19.2912 22.8069 19.0263 22.9166 18.75 22.9166H6.25001C5.97375 22.9166 5.70879 22.8069 5.51344 22.6115C5.31809 22.4162 5.20835 22.1512 5.20835 21.875V18.75C5.20835 18.4737 5.31809 18.2088 5.51344 18.0134C5.70879 17.8181 5.97375 17.7083 6.25001 17.7083H7.4021C7.64376 16.5166 8.3396 14.8771 10.0729 13.1708C10.2625 12.9833 10.375 12.7677 10.4219 12.5541C9.32069 13.242 8.16996 13.8471 6.97918 14.3646C6.69428 14.4875 6.37899 14.5218 6.07431 14.4631C5.76963 14.4044 5.48967 14.2554 5.27085 14.0354L3.7323 12.4969C3.47672 12.2415 3.31753 11.9055 3.28182 11.5459C3.24612 11.1864 3.3361 10.8256 3.53647 10.525L7.13126 5.13331L6.36043 3.59165C6.28085 3.43284 6.2432 3.25631 6.25107 3.07885C6.25893 2.90139 6.31205 2.72889 6.40537 2.57775C6.49869 2.4266 6.62911 2.30183 6.78424 2.21529C6.93936 2.12875 7.11405 2.08332 7.29168 2.08331ZM9.37501 9.37498C9.65128 9.37498 9.91623 9.26523 10.1116 9.06988C10.3069 8.87453 10.4167 8.60958 10.4167 8.33331C10.4167 8.05705 10.3069 7.79209 10.1116 7.59674C9.91623 7.40139 9.65128 7.29165 9.37501 7.29165C9.09875 7.29165 8.83379 7.40139 8.63844 7.59674C8.44309 7.79209 8.33335 8.05705 8.33335 8.33331C8.33335 8.60958 8.44309 8.87453 8.63844 9.06988C8.83379 9.26523 9.09875 9.37498 9.37501 9.37498Z" fill="#077198"/>
</g>
</svg>
