<svg width="26" height="25" viewBox="0 0 26 25" fill="none" xmlns="http://www.w3.org/2000/svg">
<g id="Futbol">
<path id="Vector" d="M13 0C19.9037 0 25.5 5.59625 25.5 12.5C25.5 19.4037 19.9037 25 13 25C6.09625 25 0.5 19.4037 0.5 12.5C0.5 5.59625 6.09625 0 13 0ZM15.0875 17.5H10.9125L9.1875 19.8713L9.88 22.0037C10.8871 22.3336 11.9403 22.5011 13 22.5C14.0887 22.5 15.1375 22.325 16.12 22.0037L16.8112 19.8713L15.0862 17.5H15.0875ZM4.6175 11.09L3.0025 12.2625L3 12.5C3 14.6625 3.68625 16.6637 4.8525 18.3H7.24L8.89375 16.025L7.60875 12.0625L4.6175 11.09ZM21.3825 11.09L18.3913 12.0625L17.1063 16.025L18.7588 18.3H21.1462C22.3549 16.6078 23.0031 14.5795 23 12.5L22.9963 12.2612L21.3825 11.09ZM15.8625 2.91625L14.25 4.09125V7.2375L17.6175 9.68375L20.4175 8.775L21.11 6.64625C19.8195 4.85984 17.976 3.54881 15.865 2.91625H15.8625ZM10.135 2.91625C8.0238 3.54914 6.18026 4.86062 4.89 6.6475L5.5825 8.775L8.38125 9.68375L11.75 7.2375V4.09125L10.135 2.91625Z" fill="#077198"/>
</g>
</svg>
