<svg width="25" height="25" viewBox="0 0 25 25" fill="none" xmlns="http://www.w3.org/2000/svg">
<g id="Infantiles">
<path id="Vector" d="M17.1667 22.4028C16.2444 22.4028 15.5 21.2361 15.5 19.7917C15.5 18.3611 16.2444 17.1944 17.1667 17.1944C18.0889 17.1944 18.8333 18.3611 18.8333 19.7917C18.8333 21.2361 18.0889 22.4028 17.1667 22.4028ZM13 11.4583C11.6222 11.4583 10.5 10.2917 10.5 8.86111C10.5 7.41667 11.6222 6.25 13 6.25C14.3778 6.25 15.5 7.41667 15.5 8.86111C15.5 10.2917 14.3778 11.4583 13 11.4583ZM8.83334 22.4028C7.91112 22.4028 7.16668 21.2361 7.16668 19.7917C7.16668 18.3611 7.91112 17.1944 8.83334 17.1944C9.75557 17.1944 10.5 18.3611 10.5 19.7917C10.5 21.2361 9.75557 22.4028 8.83334 22.4028ZM13 7.29167C13.4556 7.29167 13.8333 7.76389 13.8333 8.33333C13.8333 8.90278 13.4556 9.375 13 9.375C12.5445 9.375 12.1667 8.90278 12.1667 8.33333C12.1667 7.76389 12.5445 7.29167 13 7.29167ZM20.5 12.5C20.1444 12.5 19.8 12.5972 19.4889 12.7778C18.9556 11.9306 18.2333 11.2083 17.3667 10.6528C18 9.54167 18.3778 8.19444 18.3778 6.73611V6.65278C19.5889 6.33333 20.5 4.98611 20.5 3.36111C20.5 1.51389 19.2889 0 17.8111 0C17.0444 0 16.3333 0.402778 15.8667 1.04167C15.0096 0.361369 14.0153 0.000102652 13 0.000102652C11.9847 0.000102652 10.9904 0.361369 10.1333 1.04167C9.66668 0.402778 8.95557 0 8.1889 0C6.71112 0 5.50001 1.51389 5.50001 3.36111C5.50001 4.97222 6.41112 6.31944 7.61112 6.65278V6.73611C7.61112 8.19444 8.00001 9.55556 8.62223 10.6528C7.76668 11.2083 7.04446 11.9306 6.51112 12.7778C6.13142 12.564 5.71486 12.4727 5.29961 12.5123C4.88437 12.5519 4.48371 12.7211 4.13433 13.0044C3.78496 13.2877 3.49804 13.6761 3.29987 14.1339C3.10169 14.5917 2.99859 15.1044 3.00001 15.625C3.00001 17.3611 4.11112 18.75 5.50001 18.75H5.56668C5.52223 19.0833 5.50001 19.4444 5.50001 19.7917C5.50001 22.6667 6.9889 25 8.83334 25C9.95556 25 10.9445 24.125 11.5556 22.7917C12.0222 22.875 12.5 22.9167 13 22.9167C13.5 22.9167 13.9778 22.875 14.4445 22.7917C15.0556 24.125 16.0444 25 17.1667 25C19.0111 25 20.5 22.6667 20.5 19.7917C20.5 19.4444 20.4778 19.0833 20.4333 18.75H20.5C21.8889 18.75 23 17.3611 23 15.625C23 13.8889 21.8889 12.5 20.5 12.5Z" fill="#077198"/>
</g>
</svg>
