<svg width="25" height="25" viewBox="0 0 25 25" fill="none" xmlns="http://www.w3.org/2000/svg">
<g id="Mesa">
<path id="Vector" d="M12.4951 0.00976562H9.37012V3.13477H12.4951V0.00976562ZM0 3.1333V6.2583H3.125V3.1333H0ZM6.25 0.00976562H3.125V3.13477H6.25V0.00976562ZM9.375 12.5049V15.6299H12.5V12.5049H9.375ZM0 9.38086V12.5059H3.125V9.38086H0ZM18.7427 0.00976562H15.6177V3.13477H18.7427V0.00976562ZM24.9927 0.00976562H21.8677V3.13477H24.9927V0.00976562ZM6.25 12.5049H3.125V15.6299H6.25V12.5049ZM24.9902 21.875V18.75H21.8652V21.875H24.9902ZM24.9902 15.625V12.5H21.8652V15.625H24.9902ZM18.7427 25H21.8677V21.875H18.7427V25ZM24.9927 9.38086V6.25586H21.8677V9.38086H24.9927ZM6.25 25H9.375V21.875H6.25V25ZM0 25H3.125V21.875H0V25ZM12.4951 25H15.6201V21.875H12.4951V25ZM0 15.6284V18.7534H3.125V15.6284H0ZM15.6191 6.25732V3.13232H12.4941V6.25732H15.6191ZM12.4941 12.5073H15.6191V9.38232H12.4941V12.5073ZM9.36914 18.7573V21.8823H12.4941V18.7573H9.36914ZM15.6191 15.6323H18.7441V12.5073H15.6191V15.6323ZM15.6191 9.38477H18.7441V6.25977H15.6191V9.38477ZM15.6191 18.7563V21.8813H18.7441V18.7563H15.6191ZM3.125 18.7524V21.8774H6.25V18.7524H3.125ZM9.375 6.25732V3.13232H6.25V6.25732H9.375ZM18.7461 18.7524H21.8711V15.6274H18.7461V18.7524ZM12.4961 9.38086V6.25586H9.37109V9.38086H12.4961ZM18.7461 3.1333V6.2583H21.8711V3.1333H18.7461ZM12.4961 15.6284V18.7534H15.6211V15.6284H12.4961ZM9.37109 9.38086H6.25V12.5059H9.375L9.37109 9.38086ZM18.7422 12.5059H21.8672V9.38086H18.7422V12.5059ZM6.25 6.25732H3.125V9.38232H6.25V6.25732ZM6.25 15.6284V18.7534H9.375V15.6284H6.25Z" fill="#077198"/>
</g>
</svg>
