<svg width="25" height="25" viewBox="0 0 25 25" fill="none" xmlns="http://www.w3.org/2000/svg">
<g id="Moda">
<path id="Vector" d="M24.815 22.597C24.8106 22.5877 24.8054 22.5787 24.7994 22.57L18.3389 12.1325L21.251 8.66487C21.2567 8.65865 21.2619 8.65217 21.2666 8.64547C21.4784 8.37756 21.5903 8.07103 21.5903 7.75862C21.5903 7.44621 21.4784 7.13968 21.2666 6.87177C21.2538 6.85453 21.2382 6.83728 21.224 6.82112L18.1813 3.52371V0.862069C18.1813 0.633434 18.0615 0.414163 17.8484 0.252494C17.6353 0.0908249 17.3463 0 17.0449 0C16.7435 0 16.4544 0.0908249 16.2413 0.252494C16.0282 0.414163 15.9085 0.633434 15.9085 0.862069V3.49353L15.1613 4.20259C14.8419 4.50542 14.4368 4.74988 13.976 4.91787C13.5152 5.08586 13.0105 5.17309 12.4993 5.17309C11.988 5.17309 11.4833 5.08586 11.0226 4.91787C10.5618 4.74988 10.1567 4.50542 9.83728 4.20259L9.0901 3.49353V0.862069C9.0901 0.633434 8.97038 0.414163 8.75726 0.252494C8.54414 0.0908249 8.2551 0 7.95371 0C7.65232 0 7.36327 0.0908249 7.15015 0.252494C6.93704 0.414163 6.81731 0.633434 6.81731 0.862069V3.52371L3.77461 6.82112C3.76041 6.83728 3.74478 6.85453 3.732 6.87177C3.52017 7.13968 3.40827 7.44621 3.40827 7.75862C3.40827 8.07103 3.52017 8.37756 3.732 8.64547C3.73668 8.65217 3.7419 8.65865 3.74762 8.66487L6.65964 12.1325L0.199228 22.57C0.193169 22.5787 0.187947 22.5877 0.183602 22.597C0.035559 22.8592 -0.0244311 23.1451 0.00900644 23.4292C0.0424439 23.7133 0.168264 23.9866 0.375195 24.2248C0.582125 24.4629 0.863701 24.6584 1.19469 24.7937C1.52568 24.929 1.89575 24.9999 2.27173 25H22.7268C23.103 25 23.4732 24.9293 23.8044 24.7941C24.1355 24.6588 24.4173 24.4634 24.6244 24.2252C24.8315 23.9871 24.9575 23.7136 24.991 23.4295C25.0245 23.1453 24.9645 22.8592 24.8164 22.597H24.815ZM5.68092 7.75862L8.01479 5.23384L8.06166 5.27909C8.59397 5.78407 9.26921 6.19173 10.0374 6.47188C10.8056 6.75203 11.647 6.8975 12.4993 6.8975C13.3516 6.8975 14.193 6.75203 14.9612 6.47188C15.7294 6.19173 16.4046 5.78407 16.9369 5.27909L16.9838 5.23384L19.3177 7.75862L16.4227 11.2069H8.5773L5.68092 7.75862ZM2.27173 23.2759L8.6739 12.931H16.3218L22.7268 23.2759H2.27173Z" fill="#077198"/>
</g>
</svg>
