<svg width="25" height="25" viewBox="0 0 25 25" fill="none" xmlns="http://www.w3.org/2000/svg">
<g id="Multijugador">
<path id="Vector" d="M3.75 10.7143C5.12891 10.7143 6.25 9.11272 6.25 7.14286C6.25 5.17299 5.12891 3.57143 3.75 3.57143C2.37109 3.57143 1.25 5.17299 1.25 7.14286C1.25 9.11272 2.37109 10.7143 3.75 10.7143ZM21.25 10.7143C22.6289 10.7143 23.75 9.11272 23.75 7.14286C23.75 5.17299 22.6289 3.57143 21.25 3.57143C19.8711 3.57143 18.75 5.17299 18.75 7.14286C18.75 9.11272 19.8711 10.7143 21.25 10.7143ZM22.5 12.5H20C19.3125 12.5 18.6914 12.8962 18.2383 13.5379C19.8125 14.7712 20.9297 16.9978 21.1719 19.6429H23.75C24.4414 19.6429 25 18.8449 25 17.8571V16.0714C25 14.1016 23.8789 12.5 22.5 12.5ZM12.5 12.5C14.918 12.5 16.875 9.70424 16.875 6.25C16.875 2.79576 14.918 0 12.5 0C10.082 0 8.125 2.79576 8.125 6.25C8.125 9.70424 10.082 12.5 12.5 12.5ZM15.5 14.2857H15.1758C14.3633 14.8438 13.4609 15.1786 12.5 15.1786C11.5391 15.1786 10.6406 14.8438 9.82422 14.2857H9.5C7.01562 14.2857 5 17.1652 5 20.7143V22.3214C5 23.8002 5.83984 25 6.875 25H18.125C19.1602 25 20 23.8002 20 22.3214V20.7143C20 17.1652 17.9844 14.2857 15.5 14.2857ZM6.76172 13.5379C6.30859 12.8962 5.6875 12.5 5 12.5H2.5C1.12109 12.5 0 14.1016 0 16.0714V17.8571C0 18.8449 0.558594 19.6429 1.25 19.6429H3.82422C4.07031 16.9978 5.1875 14.7712 6.76172 13.5379Z" fill="#077198"/>
</g>
</svg>
