<svg width="48" height="27" viewBox="0 0 48 27" fill="none" xmlns="http://www.w3.org/2000/svg">
<path d="M26.7541 4.24812C26.7541 3.9413 26.8785 3.64704 27.0998 3.43009C27.3212 3.21313 27.6214 3.09125 27.9345 3.09125H46.8197C47.1327 3.09125 47.4329 3.21313 47.6543 3.43009C47.8756 3.64704 48 3.9413 48 4.24812C48 4.55494 47.8756 4.84919 47.6543 5.06615C47.4329 5.2831 47.1327 5.40499 46.8197 5.40499H27.9345C27.6214 5.40499 27.3212 5.2831 27.0998 5.06615C26.8785 4.84919 26.7541 4.55494 26.7541 4.24812ZM46.8197 12.3462H27.9345C27.6214 12.3462 27.3212 12.4681 27.0998 12.685C26.8785 12.902 26.7541 13.1963 26.7541 13.5031C26.7541 13.8099 26.8785 14.1042 27.0998 14.3211C27.3212 14.5381 27.6214 14.66 27.9345 14.66H46.8197C47.1327 14.66 47.4329 14.5381 47.6543 14.3211C47.8756 14.1042 48 13.8099 48 13.5031C48 13.1963 47.8756 12.902 47.6543 12.685C47.4329 12.4681 47.1327 12.3462 46.8197 12.3462ZM46.8197 21.6012H32.6558C32.3427 21.6012 32.0425 21.7231 31.8212 21.94C31.5998 22.157 31.4754 22.4512 31.4754 22.758C31.4754 23.0649 31.5998 23.3591 31.8212 23.5761C32.0425 23.793 32.3427 23.9149 32.6558 23.9149H46.8197C47.1327 23.9149 47.4329 23.793 47.6543 23.5761C47.8756 23.3591 48 23.0649 48 22.758C48 22.4512 47.8756 22.157 47.6543 21.94C47.4329 21.7231 47.1327 21.6012 46.8197 21.6012ZM27.5036 25.5538C27.5424 25.7009 27.5512 25.8541 27.5296 26.0045C27.5079 26.155 27.4563 26.2998 27.3775 26.4307C27.2988 26.5615 27.1945 26.6759 27.0707 26.7673C26.9469 26.8587 26.8059 26.9253 26.6558 26.9633C26.5057 27.0012 26.3494 27.0099 26.1959 26.9887C26.0424 26.9675 25.8947 26.9168 25.7612 26.8397C25.6276 26.7625 25.5109 26.6603 25.4177 26.5389C25.3244 26.4176 25.2565 26.2794 25.2178 26.1322C23.941 21.2715 19.1273 17.7449 13.7706 17.7449C8.41385 17.7449 3.60009 21.2715 2.32337 26.1303C2.28462 26.2774 2.21669 26.4156 2.12345 26.537C2.03021 26.6584 1.91349 26.7606 1.77996 26.8377C1.64642 26.9149 1.49869 26.9655 1.34519 26.9867C1.1917 27.008 1.03544 26.9993 0.885344 26.9613C0.73525 26.9234 0.594258 26.8568 0.470418 26.7654C0.346579 26.674 0.242316 26.5596 0.163585 26.4287C0.0848529 26.2978 0.0331937 26.153 0.0115561 26.0026C-0.0100815 25.8521 -0.00127375 25.699 0.0374769 25.5519C1.16665 21.256 4.56206 17.8259 8.825 16.2969C7.19219 15.2525 5.94721 13.7191 5.27545 11.9251C4.60369 10.1311 4.54108 8.17246 5.09694 6.34076C5.6528 4.50906 6.7974 2.90231 8.3603 1.75977C9.9232 0.617225 11.8208 0 13.7706 0C15.7203 0 17.6179 0.617225 19.1808 1.75977C20.7437 2.90231 21.8883 4.50906 22.4442 6.34076C23 8.17246 22.9374 10.1311 22.2657 11.9251C21.5939 13.7191 20.3489 15.2525 18.7161 16.2969C22.9751 17.8278 26.3764 21.258 27.5036 25.5538ZM13.7706 15.4312C15.0934 15.4312 16.3866 15.0467 17.4865 14.3264C18.5864 13.606 19.4437 12.5822 19.9499 11.3843C20.4562 10.1864 20.5886 8.86833 20.3306 7.59667C20.0725 6.325 19.4355 5.15691 18.5001 4.24009C17.5646 3.32327 16.3729 2.69891 15.0754 2.44596C13.778 2.19301 12.4331 2.32284 11.211 2.81902C9.98881 3.31519 8.94421 4.15544 8.20927 5.2335C7.47433 6.31157 7.08205 7.57902 7.08205 8.8756C7.08205 10.6143 7.78673 12.2817 9.04107 13.5111C10.2954 14.7405 11.9967 15.4312 13.7706 15.4312Z" fill="#6ED8FF"/>
</svg>
